EBGaramondVF-ParaWidthMin.ufo
<glyph name="exclam" format="1">
  <advance width="184"/>
  <unicode hex="0021"/>
  <outline>
    <contour>
      <point x="89" y="203" type="curve" smooth="yes"/>
      <point x="103" y="203"/>
      <point x="111" y="218"/>
      <point x="113" y="238" type="curve" smooth="yes"/>
      <point x="131" y="400"/>
      <point x="147" y="530"/>
      <point x="147" y="582" type="curve" smooth="yes"/>
      <point x="147" y="617"/>
      <point x="126" y="649"/>
      <point x="93" y="649" type="curve" smooth="yes"/>
      <point x="61" y="649"/>
      <point x="37" y="617"/>
      <point x="37" y="582" type="curve" smooth="yes"/>
      <point x="37" y="530"/>
      <point x="50" y="400"/>
      <point x="66" y="238" type="curve" smooth="yes"/>
      <point x="69" y="212"/>
      <point x="76" y="203"/>
    </contour>
    <contour>
      <point x="92" y="-14" type="curve" smooth="yes"/>
      <point x="127" y="-14"/>
      <point x="157" y="16"/>
      <point x="157" y="52" type="curve" smooth="yes"/>
      <point x="157" y="88"/>
      <point x="127" y="117"/>
      <point x="92" y="117" type="curve" smooth="yes"/>
      <point x="55" y="117"/>
      <point x="26" y="88"/>
      <point x="26" y="52" type="curve" smooth="yes"/>
      <point x="26" y="16"/>
      <point x="55" y="-14"/>
    </contour>
  </outline>
</glyph>
<glyph name="dollar" format="1">
  <advance width="240"/>
  <unicode hex="0024"/>
  <outline>
    <contour>
      <point x="90" y="-69" type="curve" smooth="yes"/>
      <point x="101" y="-68"/>
      <point x="118" y="-64"/>
      <point x="119" y="-53" type="curve" smooth="yes"/>
      <point x="125" y="12" type="line" smooth="yes"/>
      <point x="125" y="17"/>
      <point x="128" y="18"/>
      <point x="133" y="19" type="curve" smooth="yes"/>
      <point x="184" y="29"/>
      <point x="223" y="99"/>
      <point x="223" y="194" type="curve" smooth="yes"/>
      <point x="223" y="258"/>
      <point x="200" y="299"/>
      <point x="155" y="362" type="curve"/>
      <point x="152" y="367"/>
      <point x="151" y="371"/>
      <point x="152" y="379" type="curve" smooth="yes"/>
      <point x="166" y="552" type="line" smooth="yes"/>
      <point x="166" y="554"/>
      <point x="167" y="557"/>
      <point x="169" y="557" type="curve" smooth="yes"/>
      <point x="173" y="557"/>
      <point x="180" y="527"/>
      <point x="183" y="507" type="curve" smooth="yes"/>
      <point x="184" y="501"/>
      <point x="187" y="490"/>
      <point x="200" y="490" type="curve" smooth="yes"/>
      <point x="210" y="490"/>
      <point x="219" y="499"/>
      <point x="219" y="507" type="curve" smooth="yes"/>
      <point x="219" y="541"/>
      <point x="215" y="572"/>
      <point x="207" y="593" type="curve" smooth="yes"/>
      <point x="205" y="598"/>
      <point x="203" y="605"/>
      <point x="198" y="611" type="curve" smooth="yes"/>
      <point x="194" y="616"/>
      <point x="190" y="621"/>
      <point x="185" y="625" type="curve" smooth="yes"/>
      <point x="180" y="629"/>
      <point x="179" y="629"/>
      <point x="179" y="632" type="curve" smooth="yes"/>
      <point x="179" y="641"/>
      <point x="184" y="696"/>
      <point x="186" y="707" type="curve" smooth="yes"/>
      <point x="187" y="714"/>
      <point x="175" y="723"/>
      <point x="168" y="723" type="curve" smooth="yes"/>
      <point x="155" y="723"/>
      <point x="133" y="717"/>
      <point x="132" y="704" type="curve" smooth="yes"/>
      <point x="126" y="643" type="line" smooth="yes"/>
      <point x="126" y="640"/>
      <point x="122" y="637"/>
      <point x="116" y="636" type="curve" smooth="yes"/>
      <point x="56" y="626"/>
      <point x="24" y="558"/>
      <point x="24" y="487" type="curve" smooth="yes"/>
      <point x="24" y="423"/>
      <point x="41" y="356"/>
      <point x="88" y="301" type="curve" smooth="yes"/>
      <point x="94" y="294"/>
      <point x="98" y="285"/>
      <point x="97" y="272" type="curve" smooth="yes"/>
      <point x="84" y="94" type="line" smooth="yes"/>
      <point x="84" y="90"/>
      <point x="77" y="87"/>
      <point x="75" y="91" type="curve" smooth="yes"/>
      <point x="65" y="111"/>
      <point x="61" y="138"/>
      <point x="54" y="178" type="curve" smooth="yes"/>
      <point x="53" y="184"/>
      <point x="46" y="189"/>
      <point x="37" y="189" type="curve" smooth="yes"/>
      <point x="28" y="189"/>
      <point x="17" y="181"/>
      <point x="17" y="173" type="curve" smooth="yes"/>
      <point x="17" y="147"/>
      <point x="20" y="102"/>
      <point x="23" y="78" type="curve" smooth="yes"/>
      <point x="24" y="70"/>
      <point x="26" y="64"/>
      <point x="29" y="60" type="curve"/>
      <point x="39" y="43"/>
      <point x="48" y="34"/>
      <point x="64" y="23" type="curve" smooth="yes"/>
      <point x="67" y="21"/>
      <point x="72" y="20"/>
      <point x="72" y="14" type="curve"/>
      <point x="66" y="-50" type="line" smooth="yes"/>
      <point x="65" y="-63"/>
      <point x="82" y="-70"/>
    </contour>
    <contour>
      <point x="134" y="73" type="curve" smooth="yes"/>
      <point x="132" y="73"/>
      <point x="129" y="74"/>
      <point x="129" y="78" type="curve" smooth="yes"/>
      <point x="138" y="189" type="line" smooth="yes"/>
      <point x="138" y="192"/>
      <point x="143" y="196"/>
      <point x="144" y="193" type="curve" smooth="yes"/>
      <point x="149" y="178"/>
      <point x="150" y="167"/>
      <point x="150" y="151" type="curve" smooth="yes"/>
      <point x="150" y="107"/>
      <point x="145" y="73"/>
    </contour>
    <contour>
      <point x="108" y="443" type="curve" smooth="yes"/>
      <point x="97" y="464"/>
      <point x="93" y="481"/>
      <point x="93" y="505" type="curve" smooth="yes"/>
      <point x="93" y="556"/>
      <point x="109" y="585"/>
      <point x="122" y="585" type="curve" smooth="yes"/>
      <point x="126" y="585"/>
      <point x="128" y="584"/>
      <point x="128" y="579" type="curve" smooth="yes"/>
      <point x="116" y="446" type="line"/>
      <point x="116" y="438"/>
      <point x="111" y="437"/>
    </contour>
  </outline>
</glyph>
<glyph name="parenleft" format="1">
  <advance width="158"/>
  <unicode hex="0028"/>
  <outline>
    <contour>
      <point x="121" y="-214" type="curve" smooth="yes"/>
      <point x="129" y="-214"/>
      <point x="140" y="-207"/>
      <point x="140" y="-193" type="curve" smooth="yes"/>
      <point x="140" y="-185"/>
      <point x="139" y="-182"/>
      <point x="137" y="-173" type="curve" smooth="yes"/>
      <point x="115" y="-75"/>
      <point x="108" y="111"/>
      <point x="108" y="281" type="curve" smooth="yes"/>
      <point x="108" y="451"/>
      <point x="124" y="570"/>
      <point x="137" y="670" type="curve" smooth="yes"/>
      <point x="137" y="672"/>
      <point x="139" y="687"/>
      <point x="139" y="689" type="curve" smooth="yes"/>
      <point x="139" y="698"/>
      <point x="129" y="705"/>
      <point x="120" y="705" type="curve" smooth="yes"/>
      <point x="111" y="705"/>
      <point x="105" y="700"/>
      <point x="102" y="694" type="curve" smooth="yes"/>
      <point x="67" y="625"/>
      <point x="14" y="439"/>
      <point x="14" y="269" type="curve" smooth="yes"/>
      <point x="14" y="99"/>
      <point x="75" y="-135"/>
      <point x="101" y="-200" type="curve" smooth="yes"/>
      <point x="105" y="-210"/>
      <point x="114" y="-214"/>
    </contour>
  </outline>
</glyph>
<glyph name="asterisk" format="1">
  <advance width="177"/>
  <unicode hex="002A"/>
  <outline>
    <contour>
      <point x="99" y="363" type="curve" smooth="yes"/>
      <point x="110" y="363"/>
      <point x="123" y="376"/>
      <point x="123" y="394" type="curve"/>
      <point x="122" y="420"/>
      <point x="120" y="447"/>
      <point x="119" y="473" type="curve"/>
      <point x="126" y="465"/>
      <point x="134" y="457"/>
      <point x="141" y="449" type="curve" smooth="yes"/>
      <point x="146" y="444"/>
      <point x="169" y="449"/>
      <point x="169" y="469" type="curve" smooth="yes"/>
      <point x="169" y="479"/>
      <point x="166" y="490"/>
      <point x="162" y="494" type="curve"/>
      <point x="151" y="505"/>
      <point x="141" y="516"/>
      <point x="130" y="527" type="curve"/>
      <point x="163" y="579" type="line"/>
      <point x="166" y="586"/>
      <point x="169" y="594"/>
      <point x="169" y="603" type="curve" smooth="yes"/>
      <point x="169" y="617"/>
      <point x="156" y="625"/>
      <point x="150" y="625" type="curve" smooth="yes"/>
      <point x="148" y="625"/>
      <point x="146" y="624"/>
      <point x="143" y="620" type="curve"/>
      <point x="133" y="605"/>
      <point x="124" y="591"/>
      <point x="114" y="576" type="curve"/>
      <point x="107" y="648" type="line" smooth="yes"/>
      <point x="106" y="662"/>
      <point x="96" y="673"/>
      <point x="85" y="673" type="curve" smooth="yes"/>
      <point x="72" y="673"/>
      <point x="59" y="663"/>
      <point x="59" y="642" type="curve"/>
      <point x="60" y="618"/>
      <point x="62" y="593"/>
      <point x="63" y="569" type="curve"/>
      <point x="50" y="580"/>
      <point x="40" y="589"/>
      <point x="27" y="600" type="curve"/>
      <point x="22" y="604"/>
      <point x="6" y="604"/>
      <point x="6" y="584" type="curve" smooth="yes"/>
      <point x="6" y="575"/>
      <point x="15" y="561"/>
      <point x="19" y="556" type="curve"/>
      <point x="31" y="541"/>
      <point x="39" y="530"/>
      <point x="51" y="515" type="curve"/>
      <point x="20" y="463" type="line" smooth="yes"/>
      <point x="16" y="456"/>
      <point x="13" y="447"/>
      <point x="13" y="439" type="curve" smooth="yes"/>
      <point x="13" y="425"/>
      <point x="24" y="417"/>
      <point x="30" y="417" type="curve" smooth="yes"/>
      <point x="33" y="417"/>
      <point x="34" y="418"/>
      <point x="38" y="425" type="curve"/>
      <point x="46" y="436"/>
      <point x="59" y="455"/>
      <point x="67" y="466" type="curve"/>
      <point x="75" y="388" type="line" smooth="yes"/>
      <point x="77" y="367"/>
      <point x="92" y="363"/>
    </contour>
  </outline>
</glyph>
<glyph name="plus" format="1">
  <advance width="263"/>
  <unicode hex="002B"/>
  <outline>
    <contour>
      <point x="108" y="121" type="curve" smooth="yes"/>
      <point x="117" y="121"/>
      <point x="166" y="124"/>
      <point x="166" y="145" type="curve" smooth="yes"/>
      <point x="166" y="206" type="line" smooth="yes"/>
      <point x="166" y="209"/>
      <point x="167" y="210"/>
      <point x="170" y="210" type="curve" smooth="yes"/>
      <point x="215" y="210" type="line" smooth="yes"/>
      <point x="234" y="210"/>
      <point x="246" y="251"/>
      <point x="246" y="268" type="curve" smooth="yes"/>
      <point x="246" y="274"/>
      <point x="240" y="278"/>
      <point x="233" y="278" type="curve" smooth="yes"/>
      <point x="168" y="278" type="line" smooth="yes"/>
      <point x="166" y="278"/>
      <point x="166" y="279"/>
      <point x="166" y="284" type="curve" smooth="yes"/>
      <point x="166" y="354" type="line" smooth="yes"/>
      <point x="166" y="361"/>
      <point x="159" y="367"/>
      <point x="152" y="367" type="curve" smooth="yes"/>
      <point x="146" y="367"/>
      <point x="96" y="358"/>
      <point x="96" y="336" type="curve" smooth="yes"/>
      <point x="96" y="286" type="line" smooth="yes"/>
      <point x="96" y="280"/>
      <point x="95" y="278"/>
      <point x="89" y="278" type="curve" smooth="yes"/>
      <point x="41" y="278" type="line" smooth="yes"/>
      <point x="23" y="278"/>
      <point x="17" y="231"/>
      <point x="17" y="222" type="curve" smooth="yes"/>
      <point x="17" y="216"/>
      <point x="24" y="210"/>
      <point x="31" y="210" type="curve" smooth="yes"/>
      <point x="92" y="210" type="line" smooth="yes"/>
      <point x="95" y="210"/>
      <point x="96" y="208"/>
      <point x="96" y="205" type="curve" smooth="yes"/>
      <point x="96" y="135" type="line" smooth="yes"/>
      <point x="96" y="128"/>
      <point x="102" y="121"/>
    </contour>
  </outline>
</glyph>
<glyph name="one" format="1">
  <advance width="282"/>
  <unicode hex="0031"/>
  <outline>
    <contour>
      <point x="45" y="-3" type="curve" smooth="yes"/>
      <point x="61" y="-3"/>
      <point x="110" y="2"/>
      <point x="134" y="2" type="curve" smooth="yes"/>
      <point x="157" y="2"/>
      <point x="203" y="-3"/>
      <point x="228" y="-3" type="curve" smooth="yes"/>
      <point x="232" y="-3"/>
      <point x="234" y="2"/>
      <point x="234" y="8" type="curve" smooth="yes"/>
      <point x="234" y="14"/>
      <point x="231" y="19"/>
      <point x="227" y="21" type="curve" smooth="yes"/>
      <point x="190" y="39"/>
      <point x="181" y="46"/>
      <point x="181" y="97" type="curve" smooth="yes"/>
      <point x="181" y="557" type="line" smooth="yes"/>
      <point x="181" y="585"/>
      <point x="182" y="608"/>
      <point x="182" y="628" type="curve" smooth="yes"/>
      <point x="182" y="633"/>
      <point x="173" y="637"/>
      <point x="168" y="637" type="curve" smooth="yes"/>
      <point x="163" y="637"/>
      <point x="156" y="635"/>
      <point x="148" y="621" type="curve" smooth="yes"/>
      <point x="131" y="590"/>
      <point x="85" y="580"/>
      <point x="53" y="574" type="curve" smooth="yes"/>
      <point x="42" y="572"/>
      <point x="37" y="565"/>
      <point x="37" y="556" type="curve" smooth="yes"/>
      <point x="37" y="545"/>
      <point x="43" y="540"/>
      <point x="53" y="538" type="curve" smooth="yes"/>
      <point x="78" y="533"/>
      <point x="85" y="526"/>
      <point x="85" y="491" type="curve" smooth="yes"/>
      <point x="85" y="109" type="line" smooth="yes"/>
      <point x="85" y="50"/>
      <point x="69" y="43"/>
      <point x="37" y="22" type="curve" smooth="yes"/>
      <point x="34" y="20"/>
      <point x="31" y="14"/>
      <point x="31" y="9" type="curve" smooth="yes"/>
      <point x="31" y="3"/>
      <point x="33" y="-3"/>
    </contour>
  </outline>
</glyph>
<glyph name="two" format="1">
  <advance width="282"/>
  <unicode hex="0032"/>
  <outline>
    <contour>
      <point x="235" y="-3" type="curve" smooth="yes"/>
      <point x="238" y="-3"/>
      <point x="243" y="0"/>
      <point x="245" y="21" type="curve" smooth="yes"/>
      <point x="251" y="86"/>
      <point x="268" y="139"/>
      <point x="268" y="152" type="curve" smooth="yes"/>
      <point x="268" y="157"/>
      <point x="266" y="164"/>
      <point x="254" y="164" type="curve" smooth="yes"/>
      <point x="247" y="164"/>
      <point x="238" y="160"/>
      <point x="232" y="141" type="curve" smooth="yes"/>
      <point x="222" y="110"/>
      <point x="214" y="97"/>
      <point x="194" y="94" type="curve" smooth="yes"/>
      <point x="181" y="92"/>
      <point x="141" y="91"/>
      <point x="124" y="91" type="curve" smooth="yes"/>
      <point x="108" y="91"/>
      <point x="108" y="91"/>
      <point x="98" y="94" type="curve" smooth="yes"/>
      <point x="95" y="95"/>
      <point x="90" y="96"/>
      <point x="92" y="101" type="curve" smooth="yes"/>
      <point x="112" y="144"/>
      <point x="139" y="196"/>
      <point x="160" y="238" type="curve" smooth="yes"/>
      <point x="185" y="288"/>
      <point x="240" y="384"/>
      <point x="240" y="481" type="curve" smooth="yes"/>
      <point x="240" y="567"/>
      <point x="202" y="630"/>
      <point x="131" y="630" type="curve" smooth="yes"/>
      <point x="56" y="630"/>
      <point x="25" y="518"/>
      <point x="25" y="487" type="curve" smooth="yes"/>
      <point x="25" y="463"/>
      <point x="33" y="460"/>
      <point x="38" y="460" type="curve" smooth="yes"/>
      <point x="42" y="460"/>
      <point x="49" y="469"/>
      <point x="52" y="481" type="curve" smooth="yes"/>
      <point x="60" y="512"/>
      <point x="75" y="537"/>
      <point x="96" y="537" type="curve" smooth="yes"/>
      <point x="115" y="537"/>
      <point x="133" y="508"/>
      <point x="133" y="449" type="curve" smooth="yes"/>
      <point x="133" y="362"/>
      <point x="112" y="273"/>
      <point x="88" y="205" type="curve" smooth="yes"/>
      <point x="26" y="28" type="line" smooth="yes"/>
      <point x="24" y="22"/>
      <point x="22" y="21"/>
      <point x="22" y="15" type="curve" smooth="yes"/>
      <point x="22" y="9"/>
      <point x="29" y="-2"/>
      <point x="31" y="-2" type="curve" smooth="yes"/>
      <point x="40" y="-2"/>
      <point x="154" y="3"/>
      <point x="176" y="3" type="curve" smooth="yes"/>
      <point x="198" y="3"/>
      <point x="226" y="-3"/>
    </contour>
  </outline>
</glyph>
<glyph name="three" format="1">
  <advance width="282"/>
  <unicode hex="0033"/>
  <outline>
    <contour>
      <point x="93" y="-38" type="curve" smooth="yes"/>
      <point x="173" y="-38"/>
      <point x="256" y="53"/>
      <point x="256" y="203" type="curve" smooth="yes"/>
      <point x="256" y="288"/>
      <point x="214" y="360"/>
      <point x="159" y="360" type="curve" smooth="yes"/>
      <point x="156" y="360"/>
      <point x="156" y="364"/>
      <point x="159" y="366" type="curve"/>
      <point x="201" y="411"/>
      <point x="227" y="468"/>
      <point x="227" y="516" type="curve" smooth="yes"/>
      <point x="227" y="584"/>
      <point x="190" y="630"/>
      <point x="144" y="630" type="curve" smooth="yes"/>
      <point x="64" y="630"/>
      <point x="37" y="542"/>
      <point x="37" y="500" type="curve" smooth="yes"/>
      <point x="37" y="490"/>
      <point x="46" y="479"/>
      <point x="50" y="479" type="curve" smooth="yes"/>
      <point x="59" y="479"/>
      <point x="65" y="553"/>
      <point x="101" y="553" type="curve" smooth="yes"/>
      <point x="122" y="553"/>
      <point x="137" y="512"/>
      <point x="137" y="466" type="curve" smooth="yes"/>
      <point x="137" y="395"/>
      <point x="99" y="342"/>
      <point x="90" y="332" type="curve" smooth="yes"/>
      <point x="85" y="326"/>
      <point x="79" y="315"/>
      <point x="79" y="298" type="curve" smooth="yes"/>
      <point x="79" y="291"/>
      <point x="82" y="285"/>
      <point x="85" y="289" type="curve" smooth="yes"/>
      <point x="94" y="301"/>
      <point x="103" y="304"/>
      <point x="107" y="304" type="curve" smooth="yes"/>
      <point x="140" y="304"/>
      <point x="155" y="248"/>
      <point x="155" y="146" type="curve" smooth="yes"/>
      <point x="155" y="71"/>
      <point x="125" y="7"/>
      <point x="98" y="7" type="curve" smooth="yes"/>
      <point x="83" y="7"/>
      <point x="78" y="25"/>
      <point x="69" y="39" type="curve" smooth="yes"/>
      <point x="63" y="49"/>
      <point x="54" y="61"/>
      <point x="46" y="61" type="curve" smooth="yes"/>
      <point x="38" y="61"/>
      <point x="21" y="40"/>
      <point x="21" y="26" type="curve" smooth="yes"/>
      <point x="21" y="-14"/>
      <point x="64" y="-38"/>
    </contour>
  </outline>
</glyph>
<glyph name="five" format="1">
  <advance width="282"/>
  <unicode hex="0035"/>
  <outline>
    <contour>
      <point x="44" y="-38" type="curve" smooth="yes"/>
      <point x="89" y="-38"/>
      <point x="145" y="-20"/>
      <point x="178" y="10" type="curve" smooth="yes"/>
      <point x="226" y="52"/>
      <point x="254" y="120"/>
      <point x="254" y="193" type="curve" smooth="yes"/>
      <point x="254" y="259"/>
      <point x="235" y="310"/>
      <point x="188" y="356" type="curve" smooth="yes"/>
      <point x="165" y="378"/>
      <point x="135" y="400"/>
      <point x="98" y="421" type="curve" smooth="yes"/>
      <point x="91" y="425"/>
      <point x="89" y="431"/>
      <point x="89" y="440" type="curve" smooth="yes"/>
      <point x="89" y="456"/>
      <point x="104" y="505"/>
      <point x="112" y="507" type="curve" smooth="yes"/>
      <point x="129" y="511"/>
      <point x="174" y="519"/>
      <point x="194" y="524" type="curve" smooth="yes"/>
      <point x="211" y="528"/>
      <point x="217" y="538"/>
      <point x="220" y="548" type="curve" smooth="yes"/>
      <point x="226" y="568"/>
      <point x="233" y="593"/>
      <point x="235" y="604" type="curve" smooth="yes"/>
      <point x="237" y="613"/>
      <point x="234" y="621"/>
      <point x="220" y="620" type="curve" smooth="yes"/>
      <point x="181" y="617"/>
      <point x="131" y="607"/>
      <point x="98" y="592" type="curve" smooth="yes"/>
      <point x="86" y="587"/>
      <point x="78" y="576"/>
      <point x="72" y="556" type="curve" smooth="yes"/>
      <point x="58" y="512"/>
      <point x="41" y="433"/>
      <point x="41" y="397" type="curve" smooth="yes"/>
      <point x="41" y="379"/>
      <point x="45" y="366"/>
      <point x="53" y="351" type="curve"/>
      <point x="123" y="302"/>
      <point x="151" y="270"/>
      <point x="147" y="179" type="curve" smooth="yes"/>
      <point x="147" y="93"/>
      <point x="112" y="7"/>
      <point x="41" y="-11" type="curve" smooth="yes"/>
      <point x="37" y="-12"/>
      <point x="24" y="-16"/>
      <point x="24" y="-26" type="curve" smooth="yes"/>
      <point x="24" y="-35"/>
      <point x="35" y="-38"/>
    </contour>
  </outline>
</glyph>
<glyph name="six" format="1">
  <advance width="282"/>
  <unicode hex="0036"/>
  <outline>
    <contour>
      <point x="142" y="-16" type="curve" smooth="yes"/>
      <point x="211" y="-16"/>
      <point x="272" y="56"/>
      <point x="272" y="175" type="curve" smooth="yes"/>
      <point x="272" y="274"/>
      <point x="246" y="324"/>
      <point x="205" y="324" type="curve" smooth="yes"/>
      <point x="185" y="324"/>
      <point x="163" y="314"/>
      <point x="148" y="298" type="curve" smooth="yes"/>
      <point x="140" y="289"/>
      <point x="134" y="278"/>
      <point x="129" y="265" type="curve" smooth="yes"/>
      <point x="123" y="249"/>
      <point x="131" y="240"/>
      <point x="139" y="246" type="curve" smooth="yes"/>
      <point x="145" y="251"/>
      <point x="149" y="257"/>
      <point x="157" y="257" type="curve" smooth="yes"/>
      <point x="169" y="257"/>
      <point x="176" y="238"/>
      <point x="176" y="164" type="curve" smooth="yes"/>
      <point x="176" y="71"/>
      <point x="158" y="36"/>
      <point x="149" y="37" type="curve" smooth="yes"/>
      <point x="129" y="39"/>
      <point x="117" y="94"/>
      <point x="117" y="195" type="curve" smooth="yes"/>
      <point x="117" y="300"/>
      <point x="127" y="399"/>
      <point x="152" y="479" type="curve" smooth="yes"/>
      <point x="169" y="534"/>
      <point x="195" y="581"/>
      <point x="228" y="614" type="curve" smooth="yes"/>
      <point x="231" y="617"/>
      <point x="238" y="624"/>
      <point x="238" y="634" type="curve" smooth="yes"/>
      <point x="238" y="638"/>
      <point x="235" y="652"/>
      <point x="196" y="623" type="curve" smooth="yes"/>
      <point x="169" y="603"/>
      <point x="133" y="560"/>
      <point x="100" y="503" type="curve" smooth="yes"/>
      <point x="51" y="418"/>
      <point x="9" y="304"/>
      <point x="9" y="193" type="curve" smooth="yes"/>
      <point x="9" y="53"/>
      <point x="68" y="-16"/>
    </contour>
  </outline>
</glyph>
<glyph name="seven" format="1">
  <advance width="282"/>
  <unicode hex="0037"/>
  <outline>
    <contour>
      <point x="85" y="-32" type="curve" smooth="yes"/>
      <point x="89" y="-32"/>
      <point x="100" y="-19"/>
      <point x="103" y="-5" type="curve" smooth="yes"/>
      <point x="225" y="538" type="line" smooth="yes"/>
      <point x="229" y="555"/>
      <point x="242" y="592"/>
      <point x="242" y="608" type="curve" smooth="yes"/>
      <point x="242" y="613"/>
      <point x="241" y="621"/>
      <point x="239" y="621" type="curve" smooth="yes"/>
      <point x="230" y="621"/>
      <point x="181" y="616"/>
      <point x="138" y="616" type="curve" smooth="yes"/>
      <point x="118" y="616"/>
      <point x="108" y="617"/>
      <point x="95" y="617" type="curve" smooth="yes"/>
      <point x="77" y="617"/>
      <point x="60" y="626"/>
      <point x="58" y="626" type="curve" smooth="yes"/>
      <point x="57" y="626"/>
      <point x="54" y="624"/>
      <point x="54" y="615" type="curve" smooth="yes"/>
      <point x="54" y="590"/>
      <point x="50" y="515"/>
      <point x="47" y="486" type="curve"/>
      <point x="46" y="481"/>
      <point x="45" y="471"/>
      <point x="45" y="464" type="curve" smooth="yes"/>
      <point x="45" y="459"/>
      <point x="45" y="450"/>
      <point x="51" y="450" type="curve" smooth="yes"/>
      <point x="60" y="450"/>
      <point x="69" y="462"/>
      <point x="74" y="475" type="curve" smooth="yes"/>
      <point x="88" y="512"/>
      <point x="100" y="521"/>
      <point x="114" y="521" type="curve" smooth="yes"/>
      <point x="203" y="521" type="line"/>
      <point x="185" y="581" type="line"/>
      <point x="53" y="35" type="line" smooth="yes"/>
      <point x="49" y="19"/>
      <point x="44" y="-2"/>
      <point x="44" y="-6" type="curve" smooth="yes"/>
      <point x="44" y="-21"/>
      <point x="69" y="-32"/>
    </contour>
  </outline>
</glyph>
<glyph name="eight" format="1">
  <advance width="282"/>
  <unicode hex="0038"/>
  <outline>
    <contour>
      <point x="135" y="-14" type="curve" smooth="yes"/>
      <point x="202" y="-14"/>
      <point x="268" y="60"/>
      <point x="268" y="164" type="curve" smooth="yes"/>
      <point x="268" y="241"/>
      <point x="235" y="290"/>
      <point x="187" y="346" type="curve" smooth="yes"/>
      <point x="181" y="353"/>
      <point x="178" y="354"/>
      <point x="191" y="367" type="curve" smooth="yes"/>
      <point x="202" y="378"/>
      <point x="208" y="384"/>
      <point x="220" y="400" type="curve" smooth="yes"/>
      <point x="235" y="420"/>
      <point x="256" y="448"/>
      <point x="256" y="496" type="curve" smooth="yes"/>
      <point x="256" y="577"/>
      <point x="202" y="630"/>
      <point x="147" y="630" type="curve" smooth="yes"/>
      <point x="87" y="630"/>
      <point x="25" y="567"/>
      <point x="25" y="489" type="curve" smooth="yes"/>
      <point x="25" y="404"/>
      <point x="53" y="356"/>
      <point x="95" y="307" type="curve" smooth="yes"/>
      <point x="101" y="300"/>
      <point x="105" y="299"/>
      <point x="98" y="294" type="curve" smooth="yes"/>
      <point x="62" y="268"/>
      <point x="14" y="229"/>
      <point x="14" y="141" type="curve" smooth="yes"/>
      <point x="14" y="49"/>
      <point x="71" y="-14"/>
    </contour>
    <contour>
      <point x="143" y="33" type="curve" smooth="yes"/>
      <point x="118" y="33"/>
      <point x="104" y="96"/>
      <point x="104" y="158" type="curve" smooth="yes"/>
      <point x="104" y="215"/>
      <point x="109" y="230"/>
      <point x="125" y="261" type="curve" smooth="yes"/>
      <point x="126" y="264"/>
      <point x="128" y="266"/>
      <point x="128" y="266" type="curve" smooth="yes"/>
      <point x="131" y="266"/>
      <point x="132" y="263"/>
      <point x="136" y="257" type="curve" smooth="yes"/>
      <point x="157" y="225"/>
      <point x="178" y="184"/>
      <point x="178" y="129" type="curve" smooth="yes"/>
      <point x="178" y="77"/>
      <point x="163" y="33"/>
    </contour>
    <contour>
      <point x="150" y="395" type="curve"/>
      <point x="122" y="434"/>
      <point x="112" y="452"/>
      <point x="112" y="502" type="curve" smooth="yes"/>
      <point x="112" y="547"/>
      <point x="128" y="582"/>
      <point x="143" y="582" type="curve" smooth="yes"/>
      <point x="160" y="582"/>
      <point x="171" y="544"/>
      <point x="171" y="497" type="curve" smooth="yes"/>
      <point x="171" y="446"/>
      <point x="170" y="425"/>
      <point x="155" y="395" type="curve" smooth="yes"/>
      <point x="154" y="393"/>
      <point x="150" y="393"/>
    </contour>
  </outline>
</glyph>
<glyph name="less" format="1">
  <advance width="302"/>
  <unicode hex="003C"/>
  <outline>
    <contour>
      <point x="254" y="110" type="line" smooth="yes"/>
      <point x="264" y="106"/>
      <point x="282" y="105"/>
      <point x="282" y="124" type="curve" smooth="yes"/>
      <point x="282" y="136"/>
      <point x="276" y="179"/>
      <point x="248" y="188" type="curve" smooth="yes"/>
      <point x="134" y="226" type="line"/>
      <point x="129" y="228"/>
      <point x="128" y="231"/>
      <point x="133" y="233" type="curve"/>
      <point x="240" y="285" type="line" smooth="yes"/>
      <point x="269" y="299"/>
      <point x="283" y="341"/>
      <point x="283" y="358" type="curve" smooth="yes"/>
      <point x="283" y="367"/>
      <point x="280" y="372"/>
      <point x="271" y="372" type="curve" smooth="yes"/>
      <point x="270" y="372"/>
      <point x="264" y="370"/>
      <point x="260" y="368" type="curve" smooth="yes"/>
      <point x="67" y="281" type="line" smooth="yes"/>
      <point x="38" y="268"/>
      <point x="20" y="229"/>
      <point x="20" y="216" type="curve" smooth="yes"/>
      <point x="20" y="208"/>
      <point x="54" y="187"/>
      <point x="78" y="178" type="curve" smooth="yes"/>
    </contour>
  </outline>
</glyph>
<glyph name="question" format="1">
  <advance width="214"/>
  <unicode hex="003F"/>
  <outline>
    <contour>
      <point x="81" y="181" type="curve" smooth="yes"/>
      <point x="91" y="181"/>
      <point x="96" y="194"/>
      <point x="97" y="204" type="curve" smooth="yes"/>
      <point x="103" y="251"/>
      <point x="110" y="271"/>
      <point x="139" y="297" type="curve" smooth="yes"/>
      <point x="149" y="306"/>
      <point x="157" y="314"/>
      <point x="167" y="323" type="curve" smooth="yes"/>
      <point x="182" y="336"/>
      <point x="196" y="369"/>
      <point x="196" y="418" type="curve" smooth="yes"/>
      <point x="196" y="469"/>
      <point x="170" y="551"/>
      <point x="137" y="607" type="curve" smooth="yes"/>
      <point x="112" y="640"/>
      <point x="84" y="661"/>
      <point x="62" y="661" type="curve" smooth="yes"/>
      <point x="42" y="661"/>
      <point x="20" y="645"/>
      <point x="20" y="616" type="curve" smooth="yes"/>
      <point x="20" y="576"/>
      <point x="32" y="555"/>
      <point x="49" y="555" type="curve" smooth="yes"/>
      <point x="56" y="555"/>
      <point x="61" y="556"/>
      <point x="65" y="557" type="curve" smooth="yes"/>
      <point x="70" y="558"/>
      <point x="74" y="560"/>
      <point x="81" y="560" type="curve" smooth="yes"/>
      <point x="119" y="560"/>
      <point x="140" y="530"/>
      <point x="140" y="491" type="curve" smooth="yes"/>
      <point x="140" y="464"/>
      <point x="128" y="432"/>
      <point x="102" y="407" type="curve" smooth="yes"/>
      <point x="59" y="361"/>
      <point x="41" y="335"/>
      <point x="41" y="303" type="curve" smooth="yes"/>
      <point x="41" y="255"/>
      <point x="52" y="235"/>
      <point x="58" y="212" type="curve" smooth="yes"/>
      <point x="64" y="195"/>
      <point x="72" y="181"/>
    </contour>
    <contour>
      <point x="99" y="-14" type="curve" smooth="yes"/>
      <point x="136" y="-14"/>
      <point x="167" y="17"/>
      <point x="167" y="54" type="curve" smooth="yes"/>
      <point x="167" y="92"/>
      <point x="136" y="123"/>
      <point x="99" y="123" type="curve" smooth="yes"/>
      <point x="61" y="123"/>
      <point x="30" y="92"/>
      <point x="30" y="54" type="curve" smooth="yes"/>
      <point x="30" y="17"/>
      <point x="61" y="-14"/>
    </contour>
  </outline>
</glyph>
<glyph name="at" format="1">
  <advance width="373"/>
  <unicode hex="0040"/>
  <outline>
    <contour>
      <point x="180" y="-131" type="curve" smooth="yes"/>
      <point x="234" y="-131"/>
      <point x="303" y="-58"/>
      <point x="314" y="-17" type="curve" smooth="yes"/>
      <point x="318" y="0"/>
      <point x="312" y="11"/>
      <point x="302" y="11" type="curve" smooth="yes"/>
      <point x="292" y="11"/>
      <point x="283" y="4"/>
      <point x="275" y="-9" type="curve" smooth="yes"/>
      <point x="251" y="-46"/>
      <point x="211" y="-72"/>
      <point x="184" y="-72" type="curve" smooth="yes"/>
      <point x="115" y="-72"/>
      <point x="79" y="26"/>
      <point x="79" y="191" type="curve" smooth="yes"/>
      <point x="79" y="349"/>
      <point x="129" y="448"/>
      <point x="195" y="448" type="curve" smooth="yes"/>
      <point x="261" y="448"/>
      <point x="294" y="362"/>
      <point x="294" y="229" type="curve" smooth="yes"/>
      <point x="294" y="144"/>
      <point x="279" y="104"/>
      <point x="263" y="104" type="curve" smooth="yes"/>
      <point x="257" y="104"/>
      <point x="253" y="116"/>
      <point x="253" y="128" type="curve" smooth="yes"/>
      <point x="253" y="136"/>
      <point x="252" y="143"/>
      <point x="253" y="151" type="curve" smooth="yes"/>
      <point x="263" y="272" type="line" smooth="yes"/>
      <point x="264" y="288"/>
      <point x="269" y="328"/>
      <point x="273" y="352" type="curve"/>
      <point x="274" y="356"/>
      <point x="247" y="360"/>
      <point x="246" y="360" type="curve" smooth="yes"/>
      <point x="240" y="360"/>
      <point x="238" y="341"/>
      <point x="234" y="341" type="curve" smooth="yes"/>
      <point x="228" y="341"/>
      <point x="222" y="345"/>
      <point x="216" y="348" type="curve" smooth="yes"/>
      <point x="210" y="352"/>
      <point x="203" y="355"/>
      <point x="195" y="355" type="curve" smooth="yes"/>
      <point x="135" y="355"/>
      <point x="93" y="280"/>
      <point x="93" y="156" type="curve" smooth="yes"/>
      <point x="93" y="86"/>
      <point x="116" y="40"/>
      <point x="149" y="40" type="curve" smooth="yes"/>
      <point x="175" y="40"/>
      <point x="194" y="81"/>
      <point x="200" y="81" type="curve" smooth="yes"/>
      <point x="211" y="81"/>
      <point x="214" y="40"/>
      <point x="251" y="40" type="curve" smooth="yes"/>
      <point x="296" y="40"/>
      <point x="356" y="107"/>
      <point x="356" y="235" type="curve" smooth="yes"/>
      <point x="356" y="402"/>
      <point x="292" y="507"/>
      <point x="206" y="507" type="curve" smooth="yes"/>
      <point x="111" y="507"/>
      <point x="17" y="395"/>
      <point x="17" y="181" type="curve" smooth="yes"/>
      <point x="17" y="-17"/>
      <point x="87" y="-131"/>
    </contour>
    <contour>
      <point x="179" y="107" type="curve" smooth="yes"/>
      <point x="172" y="107"/>
      <point x="167" y="124"/>
      <point x="168" y="181" type="curve" smooth="yes"/>
      <point x="171" y="258"/>
      <point x="184" y="297"/>
      <point x="194" y="297" type="curve" smooth="yes"/>
      <point x="202" y="297"/>
      <point x="207" y="282"/>
      <point x="207" y="253" type="curve" smooth="yes"/>
      <point x="207" y="250"/>
      <point x="207" y="247"/>
      <point x="207" y="244" type="curve"/>
      <point x="198" y="163" type="line" smooth="yes"/>
      <point x="196" y="138"/>
      <point x="192" y="130"/>
      <point x="190" y="124" type="curve" smooth="yes"/>
      <point x="187" y="113"/>
      <point x="183" y="107"/>
    </contour>
  </outline>
</glyph>
<glyph name="A" format="1">
  <advance width="365"/>
  <unicode hex="0041"/>
  <outline>
    <contour>
      <point x="14" y="-5" type="curve" smooth="yes"/>
      <point x="31" y="-5"/>
      <point x="54" y="1"/>
      <point x="78" y="1" type="curve" smooth="yes"/>
      <point x="97" y="1"/>
      <point x="117" y="-1"/>
      <point x="125" y="-1" type="curve" smooth="yes"/>
      <point x="135" y="-1"/>
      <point x="141" y="2"/>
      <point x="141" y="10" type="curve" smooth="yes"/>
      <point x="141" y="19"/>
      <point x="137" y="24"/>
      <point x="127" y="30" type="curve" smooth="yes"/>
      <point x="113" y="38"/>
      <point x="101" y="58"/>
      <point x="101" y="87" type="curve" smooth="yes"/>
      <point x="101" y="100"/>
      <point x="114" y="189"/>
      <point x="118" y="215" type="curve" smooth="yes"/>
      <point x="120" y="229"/>
      <point x="123" y="233"/>
      <point x="126" y="233" type="curve" smooth="yes"/>
      <point x="196" y="233" type="line" smooth="yes"/>
      <point x="204" y="233"/>
      <point x="205" y="232"/>
      <point x="207" y="222" type="curve" smooth="yes"/>
      <point x="217" y="172"/>
      <point x="230" y="105"/>
      <point x="230" y="76" type="curve" smooth="yes"/>
      <point x="230" y="54"/>
      <point x="222" y="38"/>
      <point x="203" y="31" type="curve" smooth="yes"/>
      <point x="195" y="28"/>
      <point x="188" y="21"/>
      <point x="188" y="12" type="curve" smooth="yes"/>
      <point x="188" y="4"/>
      <point x="202" y="0"/>
      <point x="211" y="0" type="curve" smooth="yes"/>
      <point x="225" y="0"/>
      <point x="248" y="1"/>
      <point x="274" y="1" type="curve" smooth="yes"/>
      <point x="300" y="1"/>
      <point x="338" y="-5"/>
      <point x="353" y="-5" type="curve" smooth="yes"/>
      <point x="364" y="-5"/>
      <point x="370" y="-3"/>
      <point x="370" y="5" type="curve" smooth="yes"/>
      <point x="370" y="14"/>
      <point x="366" y="24"/>
      <point x="358" y="28" type="curve" smooth="yes"/>
      <point x="344" y="35"/>
      <point x="338" y="50"/>
      <point x="322" y="128" type="curve" smooth="yes"/>
      <point x="303" y="223"/>
      <point x="262" y="459"/>
      <point x="237" y="661" type="curve" smooth="yes"/>
      <point x="236" y="669"/>
      <point x="234" y="679"/>
      <point x="229" y="684" type="curve" smooth="yes"/>
      <point x="226" y="687"/>
      <point x="223" y="685"/>
      <point x="222" y="684" type="curve" smooth="yes"/>
      <point x="216" y="678"/>
      <point x="209" y="659"/>
      <point x="190" y="651" type="curve" smooth="yes"/>
      <point x="172" y="643"/>
      <point x="149" y="640"/>
      <point x="133" y="636" type="curve"/>
      <point x="132" y="618"/>
      <point x="129" y="600"/>
      <point x="126" y="581" type="curve" smooth="yes"/>
      <point x="97" y="396"/>
      <point x="78" y="282"/>
      <point x="44" y="111" type="curve" smooth="yes"/>
      <point x="34" y="61"/>
      <point x="28" y="44"/>
      <point x="13" y="34" type="curve" smooth="yes"/>
      <point x="3" y="27"/>
      <point x="-2" y="20"/>
      <point x="-2" y="8" type="curve" smooth="yes"/>
      <point x="-2" y="0"/>
      <point x="4" y="-5"/>
    </contour>
    <contour>
      <point x="140" y="288" type="line" smooth="yes"/>
      <point x="134" y="288"/>
      <point x="130" y="288"/>
      <point x="130" y="295" type="curve" smooth="yes"/>
      <point x="130" y="297"/>
      <point x="131" y="300"/>
      <point x="131" y="303" type="curve"/>
      <point x="160" y="498" type="line" smooth="yes"/>
      <point x="162" y="509"/>
      <point x="163" y="515"/>
      <point x="164" y="515" type="curve" smooth="yes"/>
      <point x="165" y="515"/>
      <point x="166" y="509"/>
      <point x="168" y="497" type="curve" smooth="yes"/>
      <point x="195" y="303" type="line"/>
      <point x="195" y="299"/>
      <point x="196" y="295"/>
      <point x="196" y="293" type="curve" smooth="yes"/>
      <point x="196" y="288"/>
      <point x="194" y="288"/>
      <point x="190" y="288" type="curve" smooth="yes"/>
    </contour>
  </outline>
</glyph>
<glyph name="D" format="1">
  <advance width="330"/>
  <unicode hex="0044"/>
  <outline>
    <contour>
      <point x="163" y="-7" type="curve" smooth="yes"/>
      <point x="246" y="-7"/>
      <point x="315" y="150"/>
      <point x="315" y="342" type="curve" smooth="yes"/>
      <point x="315" y="517"/>
      <point x="267" y="659"/>
      <point x="148" y="659" type="curve" smooth="yes"/>
      <point x="137" y="659"/>
      <point x="93" y="651"/>
      <point x="74" y="651" type="curve" smooth="yes"/>
      <point x="53" y="651"/>
      <point x="48" y="653"/>
      <point x="22" y="653" type="curve" smooth="yes"/>
      <point x="15" y="653"/>
      <point x="6" y="649"/>
      <point x="6" y="640" type="curve" smooth="yes"/>
      <point x="6" y="629"/>
      <point x="8" y="626"/>
      <point x="14" y="622" type="curve" smooth="yes"/>
      <point x="27" y="613"/>
      <point x="31" y="597"/>
      <point x="31" y="549" type="curve" smooth="yes"/>
      <point x="31" y="99" type="line" smooth="yes"/>
      <point x="31" y="51"/>
      <point x="27" y="33"/>
      <point x="14" y="24" type="curve" smooth="yes"/>
      <point x="8" y="20"/>
      <point x="6" y="19"/>
      <point x="6" y="8" type="curve" smooth="yes"/>
      <point x="6" y="-2"/>
      <point x="15" y="-5"/>
      <point x="22" y="-5" type="curve" smooth="yes"/>
      <point x="49" y="-5"/>
      <point x="54" y="0"/>
      <point x="71" y="0" type="curve" smooth="yes"/>
      <point x="105" y="0"/>
      <point x="153" y="-7"/>
    </contour>
    <contour>
      <point x="156" y="46" type="curve" smooth="yes"/>
      <point x="141" y="46"/>
      <point x="126" y="57"/>
      <point x="126" y="133" type="curve" smooth="yes"/>
      <point x="126" y="553" type="line" smooth="yes"/>
      <point x="126" y="609"/>
      <point x="135" y="610"/>
      <point x="154" y="610" type="curve" smooth="yes"/>
      <point x="177" y="610"/>
      <point x="208" y="564"/>
      <point x="208" y="325" type="curve" smooth="yes"/>
      <point x="208" y="120"/>
      <point x="185" y="46"/>
    </contour>
  </outline>
</glyph>
<glyph name="F" format="1">
  <advance width="263"/>
  <unicode hex="0046"/>
  <outline>
    <contour>
      <point x="21" y="-5" type="curve" smooth="yes"/>
      <point x="55" y="-5"/>
      <point x="69" y="2"/>
      <point x="100" y="2" type="curve" smooth="yes"/>
      <point x="124" y="2"/>
      <point x="128" y="-5"/>
      <point x="162" y="-5" type="curve" smooth="yes"/>
      <point x="172" y="-5"/>
      <point x="179" y="-2"/>
      <point x="179" y="6" type="curve" smooth="yes"/>
      <point x="179" y="15"/>
      <point x="175" y="20"/>
      <point x="165" y="24" type="curve" smooth="yes"/>
      <point x="143" y="33"/>
      <point x="132" y="58"/>
      <point x="131" y="101" type="curve" smooth="yes"/>
      <point x="129" y="167"/>
      <point x="130" y="219"/>
      <point x="130" y="280" type="curve" smooth="yes"/>
      <point x="130" y="297"/>
      <point x="133" y="303"/>
      <point x="140" y="305" type="curve" smooth="yes"/>
      <point x="147" y="307"/>
      <point x="149" y="307"/>
      <point x="158" y="307" type="curve" smooth="yes"/>
      <point x="165" y="307"/>
      <point x="172" y="306"/>
      <point x="179" y="306" type="curve" smooth="yes"/>
      <point x="186" y="306"/>
      <point x="192" y="297"/>
      <point x="198" y="269" type="curve" smooth="yes"/>
      <point x="201" y="256"/>
      <point x="208" y="241"/>
      <point x="219" y="241" type="curve" smooth="yes"/>
      <point x="224" y="241"/>
      <point x="236" y="251"/>
      <point x="236" y="261" type="curve" smooth="yes"/>
      <point x="236" y="289"/>
      <point x="236" y="306"/>
      <point x="236" y="337" type="curve" smooth="yes"/>
      <point x="236" y="352"/>
      <point x="237" y="379"/>
      <point x="237" y="401" type="curve" smooth="yes"/>
      <point x="237" y="418"/>
      <point x="224" y="423"/>
      <point x="216" y="423" type="curve" smooth="yes"/>
      <point x="211" y="423"/>
      <point x="199" y="415"/>
      <point x="196" y="400" type="curve" smooth="yes"/>
      <point x="192" y="383"/>
      <point x="184" y="365"/>
      <point x="172" y="365" type="curve" smooth="yes"/>
      <point x="162" y="365"/>
      <point x="156" y="364"/>
      <point x="140" y="364" type="curve" smooth="yes"/>
      <point x="136" y="364"/>
      <point x="131" y="373"/>
      <point x="130" y="384" type="curve" smooth="yes"/>
      <point x="128" y="408"/>
      <point x="129" y="433"/>
      <point x="129" y="467" type="curve" smooth="yes"/>
      <point x="129" y="502"/>
      <point x="130" y="517"/>
      <point x="130" y="542" type="curve" smooth="yes"/>
      <point x="130" y="568"/>
      <point x="131" y="592"/>
      <point x="145" y="592" type="curve" smooth="yes"/>
      <point x="185" y="592" type="line" smooth="yes"/>
      <point x="195" y="592"/>
      <point x="206" y="586"/>
      <point x="212" y="567" type="curve" smooth="yes"/>
      <point x="215" y="557"/>
      <point x="218" y="542"/>
      <point x="220" y="521" type="curve" smooth="yes"/>
      <point x="222" y="510"/>
      <point x="235" y="502"/>
      <point x="240" y="502" type="curve" smooth="yes"/>
      <point x="247" y="502"/>
      <point x="260" y="510"/>
      <point x="260" y="534" type="curve" smooth="yes"/>
      <point x="260" y="548"/>
      <point x="258" y="628"/>
      <point x="258" y="651" type="curve" smooth="yes"/>
      <point x="258" y="658"/>
      <point x="253" y="660"/>
      <point x="250" y="660" type="curve" smooth="yes"/>
      <point x="240" y="660"/>
      <point x="219" y="650"/>
      <point x="200" y="650" type="curve" smooth="yes"/>
      <point x="176" y="650"/>
      <point x="149" y="650"/>
      <point x="126" y="650" type="curve" smooth="yes"/>
      <point x="84" y="650"/>
      <point x="67" y="653"/>
      <point x="24" y="653" type="curve" smooth="yes"/>
      <point x="17" y="653"/>
      <point x="11" y="650"/>
      <point x="10" y="642" type="curve" smooth="yes"/>
      <point x="10" y="633"/>
      <point x="13" y="626"/>
      <point x="19" y="622" type="curve" smooth="yes"/>
      <point x="32" y="613"/>
      <point x="34" y="582"/>
      <point x="34" y="522" type="curve" smooth="yes"/>
      <point x="34" y="100" type="line" smooth="yes"/>
      <point x="34" y="51"/>
      <point x="30" y="33"/>
      <point x="17" y="24" type="curve" smooth="yes"/>
      <point x="11" y="20"/>
      <point x="9" y="15"/>
      <point x="9" y="6" type="curve" smooth="yes"/>
      <point x="9" y="-2"/>
      <point x="14" y="-5"/>
    </contour>
  </outline>
</glyph>
<glyph name="I" format="1">
  <advance width="168"/>
  <unicode hex="0049"/>
  <outline>
    <contour>
      <point x="14" y="-5" type="curve" smooth="yes"/>
      <point x="31" y="-5"/>
      <point x="39" y="0"/>
      <point x="86" y="0" type="curve" smooth="yes"/>
      <point x="124" y="0"/>
      <point x="131" y="-5"/>
      <point x="152" y="-5" type="curve" smooth="yes"/>
      <point x="158" y="-5"/>
      <point x="163" y="-2"/>
      <point x="163" y="6" type="curve" smooth="yes"/>
      <point x="163" y="15"/>
      <point x="160" y="20"/>
      <point x="153" y="24" type="curve" smooth="yes"/>
      <point x="138" y="33"/>
      <point x="128" y="51"/>
      <point x="128" y="98" type="curve" smooth="yes"/>
      <point x="128" y="550" type="line" smooth="yes"/>
      <point x="128" y="597"/>
      <point x="136" y="613"/>
      <point x="150" y="622" type="curve" smooth="yes"/>
      <point x="157" y="626"/>
      <point x="161" y="633"/>
      <point x="161" y="642" type="curve" smooth="yes"/>
      <point x="161" y="650"/>
      <point x="155" y="653"/>
      <point x="149" y="653" type="curve" smooth="yes"/>
      <point x="128" y="653"/>
      <point x="123" y="650"/>
      <point x="86" y="650" type="curve" smooth="yes"/>
      <point x="40" y="650"/>
      <point x="34" y="653"/>
      <point x="17" y="653" type="curve" smooth="yes"/>
      <point x="11" y="653"/>
      <point x="7" y="650"/>
      <point x="7" y="642" type="curve" smooth="yes"/>
      <point x="7" y="633"/>
      <point x="9" y="626"/>
      <point x="15" y="622" type="curve" smooth="yes"/>
      <point x="28" y="613"/>
      <point x="33" y="597"/>
      <point x="33" y="550" type="curve" smooth="yes"/>
      <point x="33" y="98" type="line" smooth="yes"/>
      <point x="33" y="51"/>
      <point x="25" y="33"/>
      <point x="13" y="24" type="curve" smooth="yes"/>
      <point x="7" y="20"/>
      <point x="4" y="15"/>
      <point x="4" y="6" type="curve" smooth="yes"/>
      <point x="4" y="-2"/>
      <point x="8" y="-5"/>
    </contour>
  </outline>
</glyph>
<glyph name="M" format="1">
  <advance width="417"/>
  <unicode hex="004D"/>
  <outline>
    <contour>
      <point x="23" y="-5" type="curve" smooth="yes"/>
      <point x="51" y="-5"/>
      <point x="53" y="0"/>
      <point x="72" y="0" type="curve" smooth="yes"/>
      <point x="92" y="0"/>
      <point x="94" y="-5"/>
      <point x="124" y="-5" type="curve" smooth="yes"/>
      <point x="133" y="-5"/>
      <point x="140" y="-2"/>
      <point x="140" y="6" type="curve" smooth="yes"/>
      <point x="140" y="15"/>
      <point x="135" y="20"/>
      <point x="125" y="24" type="curve" smooth="yes"/>
      <point x="107" y="31"/>
      <point x="97" y="66"/>
      <point x="97" y="102" type="curve" smooth="yes"/>
      <point x="97" y="238"/>
      <point x="105" y="288"/>
      <point x="105" y="365" type="curve" smooth="yes"/>
      <point x="105" y="372"/>
      <point x="109" y="372"/>
      <point x="110" y="365" type="curve" smooth="yes"/>
      <point x="136" y="195"/>
      <point x="151" y="150"/>
      <point x="175" y="-4" type="curve" smooth="yes"/>
      <point x="176" y="-13"/>
      <point x="187" y="-12"/>
      <point x="189" y="-5" type="curve" smooth="yes"/>
      <point x="262" y="312" type="line" smooth="yes"/>
      <point x="265" y="325"/>
      <point x="269" y="326"/>
      <point x="269" y="312" type="curve" smooth="yes"/>
      <point x="269" y="208"/>
      <point x="272" y="164"/>
      <point x="274" y="96" type="curve" smooth="yes"/>
      <point x="275" y="49"/>
      <point x="274" y="29"/>
      <point x="257" y="24" type="curve" smooth="yes"/>
      <point x="247" y="21"/>
      <point x="242" y="15"/>
      <point x="242" y="6" type="curve" smooth="yes"/>
      <point x="242" y="-2"/>
      <point x="250" y="-5"/>
      <point x="259" y="-5" type="curve" smooth="yes"/>
      <point x="292" y="-5"/>
      <point x="298" y="0"/>
      <point x="322" y="0" type="curve" smooth="yes"/>
      <point x="349" y="0"/>
      <point x="359" y="-5"/>
      <point x="391" y="-5" type="curve" smooth="yes"/>
      <point x="401" y="-5"/>
      <point x="408" y="-2"/>
      <point x="408" y="6" type="curve" smooth="yes"/>
      <point x="408" y="15"/>
      <point x="405" y="20"/>
      <point x="396" y="24" type="curve" smooth="yes"/>
      <point x="377" y="33"/>
      <point x="370" y="54"/>
      <point x="369" y="95" type="curve" smooth="yes"/>
      <point x="364" y="244"/>
      <point x="358" y="382"/>
      <point x="358" y="568" type="curve" smooth="yes"/>
      <point x="358" y="583"/>
      <point x="362" y="596"/>
      <point x="368" y="602" type="curve" smooth="yes"/>
      <point x="375" y="609"/>
      <point x="384" y="618"/>
      <point x="390" y="625" type="curve" smooth="yes"/>
      <point x="398" y="634"/>
      <point x="400" y="637"/>
      <point x="400" y="646" type="curve" smooth="yes"/>
      <point x="399" y="655"/>
      <point x="390" y="656"/>
      <point x="387" y="656" type="curve" smooth="yes"/>
      <point x="375" y="656"/>
      <point x="345" y="648"/>
      <point x="323" y="648" type="curve" smooth="yes"/>
      <point x="294" y="648" type="line" smooth="yes"/>
      <point x="292" y="648"/>
      <point x="289" y="643"/>
      <point x="288" y="635" type="curve" smooth="yes"/>
      <point x="285" y="614"/>
      <point x="283" y="591"/>
      <point x="278" y="569" type="curve"/>
      <point x="223" y="328" type="line" smooth="yes"/>
      <point x="221" y="318"/>
      <point x="215" y="321"/>
      <point x="213" y="331" type="curve" smooth="yes"/>
      <point x="173" y="554" type="line" smooth="yes"/>
      <point x="169" y="579"/>
      <point x="165" y="607"/>
      <point x="163" y="631" type="curve" smooth="yes"/>
      <point x="162" y="641"/>
      <point x="159" y="647"/>
      <point x="155" y="647" type="curve" smooth="yes"/>
      <point x="142" y="647"/>
      <point x="44" y="655"/>
      <point x="33" y="655" type="curve" smooth="yes"/>
      <point x="23" y="655"/>
      <point x="17" y="649"/>
      <point x="17" y="639" type="curve" smooth="yes"/>
      <point x="17" y="630"/>
      <point x="21" y="626"/>
      <point x="27" y="623" type="curve" smooth="yes"/>
      <point x="40" y="617"/>
      <point x="45" y="609"/>
      <point x="50" y="601" type="curve" smooth="yes"/>
      <point x="56" y="590"/>
      <point x="60" y="579"/>
      <point x="59" y="561" type="curve" smooth="yes"/>
      <point x="59" y="551"/>
      <point x="60" y="538"/>
      <point x="60" y="528" type="curve" smooth="yes"/>
      <point x="60" y="444"/>
      <point x="54" y="282"/>
      <point x="44" y="102" type="curve" smooth="yes"/>
      <point x="41" y="55"/>
      <point x="33" y="30"/>
      <point x="19" y="24" type="curve" smooth="yes"/>
      <point x="11" y="20"/>
      <point x="7" y="15"/>
      <point x="7" y="6" type="curve" smooth="yes"/>
      <point x="7" y="-2"/>
      <point x="13" y="-5"/>
    </contour>
  </outline>
</glyph>
<glyph name="O" format="1">
  <advance width="335"/>
  <unicode hex="004F"/>
  <outline>
    <contour>
      <point x="166" y="-14" type="curve" smooth="yes"/>
      <point x="263" y="-14"/>
      <point x="315" y="95"/>
      <point x="315" y="335" type="curve" smooth="yes"/>
      <point x="315" y="592"/>
      <point x="247" y="664"/>
      <point x="170" y="664" type="curve" smooth="yes"/>
      <point x="72" y="664"/>
      <point x="20" y="555"/>
      <point x="20" y="315" type="curve" smooth="yes"/>
      <point x="20" y="58"/>
      <point x="88" y="-14"/>
    </contour>
    <contour>
      <point x="170" y="38" type="curve" smooth="yes"/>
      <point x="136" y="38"/>
      <point x="127" y="127"/>
      <point x="127" y="363" type="curve" smooth="yes"/>
      <point x="127" y="571"/>
      <point x="136" y="610"/>
      <point x="165" y="610" type="curve" smooth="yes"/>
      <point x="199" y="610"/>
      <point x="208" y="523"/>
      <point x="208" y="287" type="curve" smooth="yes"/>
      <point x="208" y="79"/>
      <point x="200" y="38"/>
    </contour>
  </outline>
</glyph>
<glyph name="P" format="1">
  <advance width="275"/>
  <unicode hex="0050"/>
  <outline>
    <contour>
      <point x="17" y="-5" type="curve" smooth="yes"/>
      <point x="53" y="-5"/>
      <point x="62" y="2"/>
      <point x="92" y="2" type="curve" smooth="yes"/>
      <point x="109" y="2"/>
      <point x="124" y="-5"/>
      <point x="153" y="-5" type="curve" smooth="yes"/>
      <point x="159" y="-5"/>
      <point x="164" y="-2"/>
      <point x="164" y="6" type="curve" smooth="yes"/>
      <point x="164" y="15"/>
      <point x="159" y="20"/>
      <point x="151" y="24" type="curve" smooth="yes"/>
      <point x="132" y="33"/>
      <point x="127" y="63"/>
      <point x="127" y="111" type="curve" smooth="yes"/>
      <point x="127" y="567" type="line" smooth="yes"/>
      <point x="127" y="596"/>
      <point x="128" y="607"/>
      <point x="136" y="607" type="curve" smooth="yes"/>
      <point x="158" y="607"/>
      <point x="176" y="562"/>
      <point x="176" y="462" type="curve" smooth="yes"/>
      <point x="176" y="337"/>
      <point x="164" y="296"/>
      <point x="150" y="296" type="curve" smooth="yes"/>
      <point x="147" y="296"/>
      <point x="144" y="298"/>
      <point x="141" y="298" type="curve" smooth="yes"/>
      <point x="136" y="298"/>
      <point x="134" y="287"/>
      <point x="134" y="275" type="curve" smooth="yes"/>
      <point x="134" y="266"/>
      <point x="141" y="246"/>
      <point x="165" y="246" type="curve" smooth="yes"/>
      <point x="238" y="246"/>
      <point x="272" y="357"/>
      <point x="272" y="480" type="curve" smooth="yes"/>
      <point x="272" y="592"/>
      <point x="223" y="658"/>
      <point x="151" y="658" type="curve" smooth="yes"/>
      <point x="137" y="658"/>
      <point x="117" y="652"/>
      <point x="94" y="652" type="curve" smooth="yes"/>
      <point x="68" y="652"/>
      <point x="62" y="653"/>
      <point x="22" y="653" type="curve" smooth="yes"/>
      <point x="15" y="653"/>
      <point x="9" y="650"/>
      <point x="6" y="642" type="curve" smooth="yes"/>
      <point x="4" y="634"/>
      <point x="9" y="626"/>
      <point x="15" y="622" type="curve" smooth="yes"/>
      <point x="29" y="613"/>
      <point x="32" y="582"/>
      <point x="32" y="522" type="curve" smooth="yes"/>
      <point x="32" y="100" type="line" smooth="yes"/>
      <point x="32" y="51"/>
      <point x="26" y="34"/>
      <point x="12" y="24" type="curve" smooth="yes"/>
      <point x="6" y="20"/>
      <point x="3" y="15"/>
      <point x="3" y="6" type="curve" smooth="yes"/>
      <point x="3" y="-2"/>
      <point x="9" y="-5"/>
    </contour>
  </outline>
</glyph>
<glyph name="Q" format="1">
  <advance width="335"/>
  <unicode hex="0051"/>
  <outline>
    <contour>
      <point x="319" y="-248" type="curve" smooth="yes"/>
      <point x="339" y="-248"/>
      <point x="365" y="-238"/>
      <point x="382" y="-223" type="curve" smooth="yes"/>
      <point x="394" y="-213"/>
      <point x="402" y="-199"/>
      <point x="402" y="-187" type="curve" smooth="yes"/>
      <point x="402" y="-181"/>
      <point x="397" y="-176"/>
      <point x="393" y="-176" type="curve" smooth="yes"/>
      <point x="390" y="-176"/>
      <point x="385" y="-178"/>
      <point x="382" y="-180" type="curve"/>
      <point x="376" y="-184"/>
      <point x="367" y="-187"/>
      <point x="353" y="-187" type="curve" smooth="yes"/>
      <point x="329" y="-187"/>
      <point x="303" y="-148"/>
      <point x="278" y="-101" type="curve" smooth="yes"/>
      <point x="263" y="-73"/>
      <point x="242" y="-37"/>
      <point x="232" y="-8" type="curve" smooth="yes"/>
      <point x="231" y="-5"/>
      <point x="231" y="-2"/>
      <point x="231" y="1" type="curve" smooth="yes"/>
      <point x="231" y="3"/>
      <point x="231" y="6"/>
      <point x="233" y="8" type="curve" smooth="yes"/>
      <point x="286" y="53"/>
      <point x="315" y="151"/>
      <point x="315" y="335" type="curve" smooth="yes"/>
      <point x="315" y="592"/>
      <point x="247" y="664"/>
      <point x="170" y="664" type="curve" smooth="yes"/>
      <point x="72" y="664"/>
      <point x="20" y="555"/>
      <point x="20" y="315" type="curve" smooth="yes"/>
      <point x="20" y="159"/>
      <point x="46" y="66"/>
      <point x="86" y="22" type="curve" smooth="yes"/>
      <point x="111" y="-6"/>
      <point x="133" y="-29"/>
      <point x="148" y="-56" type="curve" smooth="yes"/>
      <point x="162" y="-81"/>
      <point x="175" y="-108"/>
      <point x="192" y="-139" type="curve" smooth="yes"/>
      <point x="232" y="-211"/>
      <point x="259" y="-248"/>
    </contour>
    <contour>
      <point x="170" y="38" type="curve" smooth="yes"/>
      <point x="136" y="38"/>
      <point x="127" y="127"/>
      <point x="127" y="363" type="curve" smooth="yes"/>
      <point x="127" y="571"/>
      <point x="136" y="610"/>
      <point x="165" y="610" type="curve" smooth="yes"/>
      <point x="199" y="610"/>
      <point x="208" y="523"/>
      <point x="208" y="287" type="curve" smooth="yes"/>
      <point x="208" y="79"/>
      <point x="200" y="38"/>
    </contour>
  </outline>
</glyph>
<glyph name="R" format="1">
  <advance width="335"/>
  <unicode hex="0052"/>
  <outline>
    <contour>
      <point x="292" y="-21" type="curve" smooth="yes"/>
      <point x="301" y="-21"/>
      <point x="345" y="-15"/>
      <point x="345" y="14" type="curve" smooth="yes"/>
      <point x="345" y="22"/>
      <point x="343" y="25"/>
      <point x="340" y="25" type="curve" smooth="yes"/>
      <point x="324" y="25"/>
      <point x="318" y="27"/>
      <point x="305" y="58" type="curve" smooth="yes"/>
      <point x="272" y="142"/>
      <point x="249" y="217"/>
      <point x="234" y="310" type="curve" smooth="yes"/>
      <point x="233" y="316"/>
      <point x="233" y="321"/>
      <point x="234" y="323" type="curve"/>
      <point x="254" y="351"/>
      <point x="277" y="401"/>
      <point x="277" y="490" type="curve" smooth="yes"/>
      <point x="277" y="607"/>
      <point x="225" y="654"/>
      <point x="183" y="654" type="curve" smooth="yes"/>
      <point x="145" y="654"/>
      <point x="125" y="649"/>
      <point x="87" y="649" type="curve" smooth="yes"/>
      <point x="69" y="649"/>
      <point x="50" y="650"/>
      <point x="18" y="650" type="curve" smooth="yes"/>
      <point x="14" y="650"/>
      <point x="11" y="647"/>
      <point x="11" y="639" type="curve" smooth="yes"/>
      <point x="11" y="630"/>
      <point x="14" y="621"/>
      <point x="19" y="619" type="curve" smooth="yes"/>
      <point x="32" y="614"/>
      <point x="34" y="599"/>
      <point x="34" y="523" type="curve" smooth="yes"/>
      <point x="34" y="99" type="line" smooth="yes"/>
      <point x="34" y="51"/>
      <point x="27" y="33"/>
      <point x="16" y="24" type="curve" smooth="yes"/>
      <point x="11" y="20"/>
      <point x="9" y="15"/>
      <point x="9" y="6" type="curve" smooth="yes"/>
      <point x="9" y="-2"/>
      <point x="11" y="-5"/>
      <point x="16" y="-5" type="curve" smooth="yes"/>
      <point x="45" y="-5"/>
      <point x="73" y="2"/>
      <point x="96" y="2" type="curve" smooth="yes"/>
      <point x="125" y="2"/>
      <point x="128" y="-5"/>
      <point x="151" y="-5" type="curve" smooth="yes"/>
      <point x="157" y="-5"/>
      <point x="162" y="-2"/>
      <point x="162" y="6" type="curve" smooth="yes"/>
      <point x="162" y="15"/>
      <point x="159" y="20"/>
      <point x="152" y="24" type="curve" smooth="yes"/>
      <point x="135" y="33"/>
      <point x="129" y="67"/>
      <point x="129" y="109" type="curve" smooth="yes"/>
      <point x="129" y="268" type="line" smooth="yes"/>
      <point x="129" y="279"/>
      <point x="130" y="288"/>
      <point x="132" y="287" type="curve" smooth="yes"/>
      <point x="137" y="286"/>
      <point x="144" y="281"/>
      <point x="150" y="267" type="curve" smooth="yes"/>
      <point x="154" y="259"/>
      <point x="156" y="248"/>
      <point x="160" y="231" type="curve" smooth="yes"/>
      <point x="185" y="125"/>
      <point x="194" y="96"/>
      <point x="209" y="42" type="curve" smooth="yes"/>
      <point x="224" y="-12"/>
      <point x="259" y="-21"/>
    </contour>
    <contour>
      <point x="139" y="339" type="curve" smooth="yes"/>
      <point x="132" y="339"/>
      <point x="129" y="341"/>
      <point x="129" y="371" type="curve" smooth="yes"/>
      <point x="129" y="445"/>
      <point x="129" y="495"/>
      <point x="129" y="527" type="curve" smooth="yes"/>
      <point x="129" y="590"/>
      <point x="131" y="612"/>
      <point x="140" y="612" type="curve" smooth="yes"/>
      <point x="169" y="612"/>
      <point x="173" y="549"/>
      <point x="173" y="475" type="curve" smooth="yes"/>
      <point x="173" y="404"/>
      <point x="161" y="339"/>
    </contour>
  </outline>
</glyph>
<glyph name="S" format="1">
  <advance width="229"/>
  <unicode hex="0053"/>
  <outline>
    <contour>
      <point x="95" y="-16" type="curve" smooth="yes"/>
      <point x="161" y="-16"/>
      <point x="216" y="64"/>
      <point x="216" y="187" type="curve" smooth="yes"/>
      <point x="216" y="261"/>
      <point x="196" y="309"/>
      <point x="151" y="376" type="curve" smooth="yes"/>
      <point x="117" y="428"/>
      <point x="89" y="465"/>
      <point x="89" y="518" type="curve" smooth="yes"/>
      <point x="89" y="591"/>
      <point x="111" y="612"/>
      <point x="129" y="612" type="curve" smooth="yes"/>
      <point x="148" y="612"/>
      <point x="164" y="597"/>
      <point x="177" y="521" type="curve" smooth="yes"/>
      <point x="178" y="515"/>
      <point x="184" y="507"/>
      <point x="196" y="507" type="curve" smooth="yes"/>
      <point x="206" y="507"/>
      <point x="213" y="515"/>
      <point x="213" y="523" type="curve" smooth="yes"/>
      <point x="213" y="561"/>
      <point x="207" y="597"/>
      <point x="201" y="620" type="curve" smooth="yes"/>
      <point x="198" y="630"/>
      <point x="191" y="639"/>
      <point x="183" y="644" type="curve" smooth="yes"/>
      <point x="171" y="651"/>
      <point x="154" y="664"/>
      <point x="133" y="664" type="curve" smooth="yes"/>
      <point x="60" y="664"/>
      <point x="20" y="584"/>
      <point x="20" y="499" type="curve" smooth="yes"/>
      <point x="20" y="414"/>
      <point x="39" y="375"/>
      <point x="81" y="305" type="curve" smooth="yes"/>
      <point x="125" y="241"/>
      <point x="136" y="186"/>
      <point x="136" y="144" type="curve" smooth="yes"/>
      <point x="136" y="58"/>
      <point x="126" y="37"/>
      <point x="103" y="37" type="curve" smooth="yes"/>
      <point x="78" y="37"/>
      <point x="65" y="53"/>
      <point x="48" y="154" type="curve" smooth="yes"/>
      <point x="46" y="166"/>
      <point x="37" y="173"/>
      <point x="29" y="173" type="curve" smooth="yes"/>
      <point x="20" y="173"/>
      <point x="10" y="166"/>
      <point x="10" y="157" type="curve"/>
      <point x="11" y="129"/>
      <point x="12" y="79"/>
      <point x="15" y="52" type="curve" smooth="yes"/>
      <point x="16" y="44"/>
      <point x="18" y="37"/>
      <point x="20" y="32" type="curve" smooth="yes"/>
      <point x="45" y="-17"/>
      <point x="84" y="-16"/>
    </contour>
  </outline>
</glyph>
<glyph name="T" format="1">
  <advance width="306"/>
  <unicode hex="0054"/>
  <outline>
    <contour>
      <point x="87" y="-5" type="curve" smooth="yes"/>
      <point x="119" y="-5"/>
      <point x="133" y="0"/>
      <point x="162" y="0" type="curve" smooth="yes"/>
      <point x="189" y="0"/>
      <point x="200" y="-5"/>
      <point x="231" y="-5" type="curve" smooth="yes"/>
      <point x="241" y="-5"/>
      <point x="248" y="-2"/>
      <point x="248" y="6" type="curve" smooth="yes"/>
      <point x="248" y="15"/>
      <point x="245" y="20"/>
      <point x="237" y="24" type="curve" smooth="yes"/>
      <point x="219" y="33"/>
      <point x="206" y="54"/>
      <point x="206" y="102" type="curve" smooth="yes"/>
      <point x="206" y="495" type="line" smooth="yes"/>
      <point x="206" y="580"/>
      <point x="210" y="584"/>
      <point x="226" y="584" type="curve" smooth="yes"/>
      <point x="237" y="584" type="line" smooth="yes"/>
      <point x="258" y="584"/>
      <point x="261" y="567"/>
      <point x="267" y="540" type="curve" smooth="yes"/>
      <point x="273" y="515"/>
      <point x="277" y="503"/>
      <point x="285" y="503" type="curve" smooth="yes"/>
      <point x="292" y="503"/>
      <point x="305" y="515"/>
      <point x="305" y="535" type="curve" smooth="yes"/>
      <point x="305" y="567" type="line" smooth="yes"/>
      <point x="305" y="582"/>
      <point x="307" y="615"/>
      <point x="307" y="626" type="curve" smooth="yes"/>
      <point x="307" y="632"/>
      <point x="309" y="647"/>
      <point x="309" y="654" type="curve" smooth="yes"/>
      <point x="309" y="669"/>
      <point x="300" y="677"/>
      <point x="295" y="677" type="curve" smooth="yes"/>
      <point x="287" y="677"/>
      <point x="277" y="665"/>
      <point x="268" y="657" type="curve" smooth="yes"/>
      <point x="257" y="647"/>
      <point x="251" y="642"/>
      <point x="227" y="642" type="curve" smooth="yes"/>
      <point x="92" y="642" type="line" smooth="yes"/>
      <point x="80" y="642"/>
      <point x="65" y="648"/>
      <point x="61" y="662" type="curve" smooth="yes"/>
      <point x="54" y="685"/>
      <point x="46" y="694"/>
      <point x="41" y="694" type="curve" smooth="yes"/>
      <point x="32" y="694"/>
      <point x="25" y="688"/>
      <point x="24" y="671" type="curve" smooth="yes"/>
      <point x="22" y="617"/>
      <point x="15" y="585"/>
      <point x="8" y="536" type="curve" smooth="yes"/>
      <point x="7" y="530"/>
      <point x="6" y="522"/>
      <point x="6" y="516" type="curve" smooth="yes"/>
      <point x="6" y="509"/>
      <point x="14" y="503"/>
      <point x="16" y="503" type="curve" smooth="yes"/>
      <point x="27" y="503"/>
      <point x="38" y="518"/>
      <point x="46" y="541" type="curve" smooth="yes"/>
      <point x="52" y="570"/>
      <point x="65" y="584"/>
      <point x="75" y="584" type="curve" smooth="yes"/>
      <point x="86" y="584" type="line" smooth="yes"/>
      <point x="92" y="584"/>
      <point x="96" y="584"/>
      <point x="102" y="581" type="curve"/>
      <point x="110" y="578"/>
      <point x="111" y="561"/>
      <point x="111" y="490" type="curve" smooth="yes"/>
      <point x="111" y="102" type="line" smooth="yes"/>
      <point x="111" y="54"/>
      <point x="101" y="33"/>
      <point x="83" y="24" type="curve" smooth="yes"/>
      <point x="74" y="20"/>
      <point x="70" y="15"/>
      <point x="70" y="6" type="curve" smooth="yes"/>
      <point x="70" y="-2"/>
      <point x="77" y="-5"/>
    </contour>
  </outline>
</glyph>
<glyph name="U" format="1">
  <advance width="324"/>
  <unicode hex="0055"/>
  <outline>
    <contour>
      <point x="162" y="-14" type="curve" smooth="yes"/>
      <point x="241" y="-14"/>
      <point x="284" y="49"/>
      <point x="287" y="199" type="curve" smooth="yes"/>
      <point x="289" y="342"/>
      <point x="288" y="432"/>
      <point x="291" y="547" type="curve" smooth="yes"/>
      <point x="292" y="587"/>
      <point x="293" y="615"/>
      <point x="308" y="622" type="curve" smooth="yes"/>
      <point x="318" y="627"/>
      <point x="322" y="633"/>
      <point x="322" y="642" type="curve" smooth="yes"/>
      <point x="322" y="650"/>
      <point x="315" y="653"/>
      <point x="305" y="653" type="curve" smooth="yes"/>
      <point x="293" y="653"/>
      <point x="277" y="650"/>
      <point x="260" y="650" type="curve" smooth="yes"/>
      <point x="243" y="650"/>
      <point x="229" y="651"/>
      <point x="212" y="651" type="curve" smooth="yes"/>
      <point x="203" y="651"/>
      <point x="197" y="648"/>
      <point x="197" y="640" type="curve" smooth="yes"/>
      <point x="197" y="631"/>
      <point x="205" y="624"/>
      <point x="211" y="620" type="curve" smooth="yes"/>
      <point x="223" y="612"/>
      <point x="229" y="562"/>
      <point x="229" y="511" type="curve" smooth="yes"/>
      <point x="229" y="434"/>
      <point x="231" y="314"/>
      <point x="231" y="158" type="curve" smooth="yes"/>
      <point x="231" y="83"/>
      <point x="207" y="53"/>
      <point x="178" y="53" type="curve" smooth="yes"/>
      <point x="143" y="53"/>
      <point x="126" y="70"/>
      <point x="126" y="146" type="curve" smooth="yes"/>
      <point x="126" y="549" type="line" smooth="yes"/>
      <point x="126" y="593"/>
      <point x="136" y="614"/>
      <point x="145" y="621" type="curve" smooth="yes"/>
      <point x="154" y="628"/>
      <point x="159" y="632"/>
      <point x="159" y="641" type="curve" smooth="yes"/>
      <point x="159" y="649"/>
      <point x="154" y="652"/>
      <point x="147" y="652" type="curve" smooth="yes"/>
      <point x="131" y="652"/>
      <point x="105" y="650"/>
      <point x="83" y="650" type="curve" smooth="yes"/>
      <point x="57" y="650"/>
      <point x="37" y="653"/>
      <point x="17" y="653" type="curve" smooth="yes"/>
      <point x="10" y="653"/>
      <point x="5" y="650"/>
      <point x="5" y="642" type="curve" smooth="yes"/>
      <point x="5" y="633"/>
      <point x="8" y="626"/>
      <point x="16" y="620" type="curve" smooth="yes"/>
      <point x="24" y="614"/>
      <point x="31" y="595"/>
      <point x="31" y="547" type="curve" smooth="yes"/>
      <point x="31" y="191" type="line" smooth="yes"/>
      <point x="31" y="64"/>
      <point x="76" y="-14"/>
    </contour>
  </outline>
</glyph>
<glyph name="V" format="1">
  <advance width="301"/>
  <unicode hex="0056"/>
  <outline>
    <contour>
      <point x="141" y="-12" type="curve" smooth="yes"/>
      <point x="147" y="-12"/>
      <point x="161" y="-6"/>
      <point x="166" y="12" type="curve" smooth="yes"/>
      <point x="169" y="24"/>
      <point x="179" y="69"/>
      <point x="181" y="79" type="curve" smooth="yes"/>
      <point x="256" y="535" type="line" smooth="yes"/>
      <point x="262" y="571"/>
      <point x="273" y="611"/>
      <point x="295" y="622" type="curve" smooth="yes"/>
      <point x="305" y="627"/>
      <point x="309" y="633"/>
      <point x="309" y="642" type="curve" smooth="yes"/>
      <point x="309" y="650"/>
      <point x="304" y="653"/>
      <point x="297" y="653" type="curve" smooth="yes"/>
      <point x="285" y="653"/>
      <point x="252" y="650"/>
      <point x="235" y="650" type="curve" smooth="yes"/>
      <point x="218" y="650"/>
      <point x="193" y="651"/>
      <point x="181" y="651" type="curve" smooth="yes"/>
      <point x="174" y="651"/>
      <point x="169" y="648"/>
      <point x="169" y="640" type="curve" smooth="yes"/>
      <point x="169" y="631"/>
      <point x="174" y="623"/>
      <point x="183" y="620" type="curve" smooth="yes"/>
      <point x="202" y="614"/>
      <point x="204" y="587"/>
      <point x="193" y="514" type="curve" smooth="yes"/>
      <point x="164" y="319" type="line" smooth="yes"/>
      <point x="163" y="310"/>
      <point x="160" y="313"/>
      <point x="159" y="318" type="curve" smooth="yes"/>
      <point x="133" y="533" type="line" smooth="yes"/>
      <point x="130" y="557"/>
      <point x="128" y="576"/>
      <point x="127" y="591" type="curve" smooth="yes"/>
      <point x="127" y="608"/>
      <point x="131" y="619"/>
      <point x="142" y="621" type="curve" smooth="yes"/>
      <point x="152" y="623"/>
      <point x="157" y="632"/>
      <point x="157" y="641" type="curve" smooth="yes"/>
      <point x="157" y="649"/>
      <point x="151" y="652"/>
      <point x="144" y="652" type="curve" smooth="yes"/>
      <point x="135" y="652"/>
      <point x="84" y="650"/>
      <point x="66" y="650" type="curve" smooth="yes"/>
      <point x="46" y="650"/>
      <point x="26" y="653"/>
      <point x="13" y="653" type="curve" smooth="yes"/>
      <point x="5" y="653"/>
      <point x="0" y="650"/>
      <point x="0" y="642" type="curve" smooth="yes"/>
      <point x="0" y="633"/>
      <point x="4" y="627"/>
      <point x="11" y="620" type="curve" smooth="yes"/>
      <point x="23" y="610"/>
      <point x="30" y="584"/>
      <point x="35" y="547" type="curve" smooth="yes"/>
      <point x="97" y="56" type="line" smooth="yes"/>
      <point x="99" y="38"/>
      <point x="111" y="13"/>
      <point x="115" y="5" type="curve" smooth="yes"/>
      <point x="120" y="-5"/>
      <point x="140" y="-12"/>
    </contour>
  </outline>
</glyph>
<glyph name="X" format="1">
  <advance width="353"/>
  <unicode hex="0058"/>
  <outline>
    <contour>
      <point x="9" y="-5" type="curve" smooth="yes"/>
      <point x="24" y="-5"/>
      <point x="55" y="1"/>
      <point x="75" y="1" type="curve" smooth="yes"/>
      <point x="90" y="1"/>
      <point x="125" y="-1"/>
      <point x="133" y="-1" type="curve" smooth="yes"/>
      <point x="140" y="-1"/>
      <point x="145" y="2"/>
      <point x="145" y="10" type="curve" smooth="yes"/>
      <point x="145" y="19"/>
      <point x="141" y="24"/>
      <point x="131" y="30" type="curve"/>
      <point x="119" y="36"/>
      <point x="111" y="51"/>
      <point x="111" y="70" type="curve" smooth="yes"/>
      <point x="111" y="77"/>
      <point x="112" y="85"/>
      <point x="115" y="93" type="curve" smooth="yes"/>
      <point x="155" y="221" type="line" smooth="yes"/>
      <point x="158" y="230"/>
      <point x="160" y="230"/>
      <point x="165" y="216" type="curve" smooth="yes"/>
      <point x="204" y="111" type="line" smooth="yes"/>
      <point x="208" y="99"/>
      <point x="209" y="88"/>
      <point x="209" y="78" type="curve" smooth="yes"/>
      <point x="209" y="53"/>
      <point x="198" y="37"/>
      <point x="190" y="31" type="curve" smooth="yes"/>
      <point x="184" y="26"/>
      <point x="175" y="20"/>
      <point x="175" y="11" type="curve" smooth="yes"/>
      <point x="175" y="3"/>
      <point x="181" y="0"/>
      <point x="192" y="0" type="curve" smooth="yes"/>
      <point x="205" y="0"/>
      <point x="227" y="1"/>
      <point x="251" y="1" type="curve" smooth="yes"/>
      <point x="278" y="1"/>
      <point x="317" y="-5"/>
      <point x="333" y="-5" type="curve" smooth="yes"/>
      <point x="343" y="-5"/>
      <point x="349" y="2"/>
      <point x="349" y="10" type="curve" smooth="yes"/>
      <point x="349" y="19"/>
      <point x="347" y="25"/>
      <point x="337" y="31" type="curve" smooth="yes"/>
      <point x="320" y="41"/>
      <point x="310" y="69"/>
      <point x="296" y="113" type="curve" smooth="yes"/>
      <point x="231" y="312" type="line" smooth="yes"/>
      <point x="226" y="327"/>
      <point x="231" y="331"/>
      <point x="237" y="352" type="curve" smooth="yes"/>
      <point x="283" y="510" type="line" smooth="yes"/>
      <point x="298" y="562"/>
      <point x="319" y="615"/>
      <point x="335" y="625" type="curve" smooth="yes"/>
      <point x="344" y="631"/>
      <point x="348" y="636"/>
      <point x="348" y="645" type="curve" smooth="yes"/>
      <point x="348" y="653"/>
      <point x="343" y="656"/>
      <point x="333" y="656" type="curve" smooth="yes"/>
      <point x="320" y="656"/>
      <point x="294" y="650"/>
      <point x="274" y="650" type="curve" smooth="yes"/>
      <point x="259" y="650"/>
      <point x="235" y="651"/>
      <point x="223" y="651" type="curve" smooth="yes"/>
      <point x="213" y="651"/>
      <point x="208" y="648"/>
      <point x="208" y="640" type="curve" smooth="yes"/>
      <point x="208" y="631"/>
      <point x="216" y="623"/>
      <point x="223" y="620" type="curve" smooth="yes"/>
      <point x="237" y="614"/>
      <point x="242" y="604"/>
      <point x="242" y="589" type="curve" smooth="yes"/>
      <point x="242" y="576"/>
      <point x="237" y="559"/>
      <point x="231" y="538" type="curve" smooth="yes"/>
      <point x="204" y="437" type="line" smooth="yes"/>
      <point x="200" y="422"/>
      <point x="198" y="420"/>
      <point x="191" y="440" type="curve" smooth="yes"/>
      <point x="162" y="528" type="line" smooth="yes"/>
      <point x="151" y="561"/>
      <point x="147" y="578"/>
      <point x="147" y="590" type="curve" smooth="yes"/>
      <point x="147" y="606"/>
      <point x="155" y="611"/>
      <point x="170" y="621" type="curve" smooth="yes"/>
      <point x="180" y="628"/>
      <point x="184" y="632"/>
      <point x="184" y="641" type="curve" smooth="yes"/>
      <point x="184" y="649"/>
      <point x="178" y="652"/>
      <point x="169" y="652" type="curve" smooth="yes"/>
      <point x="158" y="652"/>
      <point x="132" y="650"/>
      <point x="107" y="650" type="curve" smooth="yes"/>
      <point x="75" y="650"/>
      <point x="42" y="655"/>
      <point x="20" y="655" type="curve" smooth="yes"/>
      <point x="10" y="655"/>
      <point x="3" y="652"/>
      <point x="3" y="644" type="curve" smooth="yes"/>
      <point x="3" y="635"/>
      <point x="8" y="629"/>
      <point x="17" y="622" type="curve" smooth="yes"/>
      <point x="31" y="611"/>
      <point x="40" y="599"/>
      <point x="64" y="529" type="curve" smooth="yes"/>
      <point x="124" y="354" type="line" smooth="yes"/>
      <point x="133" y="327"/>
      <point x="129" y="312"/>
      <point x="122" y="293" type="curve" smooth="yes"/>
      <point x="53" y="104" type="line" smooth="yes"/>
      <point x="40" y="67"/>
      <point x="23" y="38"/>
      <point x="10" y="28" type="curve" smooth="yes"/>
      <point x="1" y="21"/>
      <point x="-3" y="15"/>
      <point x="-3" y="6" type="curve" smooth="yes"/>
      <point x="-3" y="-2"/>
      <point x="2" y="-5"/>
    </contour>
  </outline>
</glyph>
<glyph name="Y" format="1">
  <advance width="301"/>
  <unicode hex="0059"/>
  <outline>
    <contour>
      <point x="93" y="-5" type="curve" smooth="yes"/>
      <point x="121" y="-5"/>
      <point x="134" y="0"/>
      <point x="159" y="0" type="curve" smooth="yes"/>
      <point x="184" y="0"/>
      <point x="193" y="-5"/>
      <point x="222" y="-5" type="curve" smooth="yes"/>
      <point x="230" y="-5"/>
      <point x="236" y="-2"/>
      <point x="236" y="6" type="curve" smooth="yes"/>
      <point x="236" y="15"/>
      <point x="233" y="20"/>
      <point x="227" y="24" type="curve" smooth="yes"/>
      <point x="211" y="35"/>
      <point x="201" y="63"/>
      <point x="201" y="108" type="curve" smooth="yes"/>
      <point x="201" y="260" type="line" smooth="yes"/>
      <point x="201" y="299"/>
      <point x="201" y="307"/>
      <point x="208" y="350" type="curve" smooth="yes"/>
      <point x="227" y="425"/>
      <point x="232" y="443"/>
      <point x="254" y="526" type="curve" smooth="yes"/>
      <point x="269" y="581"/>
      <point x="276" y="608"/>
      <point x="290" y="617" type="curve" smooth="yes"/>
      <point x="303" y="625"/>
      <point x="313" y="633"/>
      <point x="313" y="642" type="curve" smooth="yes"/>
      <point x="313" y="650"/>
      <point x="306" y="653"/>
      <point x="298" y="653" type="curve" smooth="yes"/>
      <point x="286" y="653"/>
      <point x="264" y="650"/>
      <point x="243" y="650" type="curve" smooth="yes"/>
      <point x="228" y="650"/>
      <point x="209" y="651"/>
      <point x="192" y="651" type="curve" smooth="yes"/>
      <point x="184" y="651"/>
      <point x="178" y="648"/>
      <point x="178" y="640" type="curve" smooth="yes"/>
      <point x="178" y="631"/>
      <point x="186" y="622"/>
      <point x="192" y="620" type="curve" smooth="yes"/>
      <point x="201" y="617"/>
      <point x="210" y="610"/>
      <point x="210" y="587" type="curve" smooth="yes"/>
      <point x="210" y="578"/>
      <point x="208" y="564"/>
      <point x="202" y="546" type="curve" smooth="yes"/>
      <point x="191" y="515"/>
      <point x="185" y="470"/>
      <point x="179" y="450" type="curve" smooth="yes"/>
      <point x="172" y="427"/>
      <point x="171" y="419"/>
      <point x="168" y="419" type="curve" smooth="yes"/>
      <point x="165" y="419"/>
      <point x="159" y="430"/>
      <point x="156" y="450" type="curve" smooth="yes"/>
      <point x="137" y="567" type="line" smooth="yes"/>
      <point x="135" y="580"/>
      <point x="132" y="590"/>
      <point x="132" y="596" type="curve" smooth="yes"/>
      <point x="132" y="611"/>
      <point x="137" y="616"/>
      <point x="146" y="621" type="curve" smooth="yes"/>
      <point x="155" y="626"/>
      <point x="160" y="632"/>
      <point x="160" y="641" type="curve" smooth="yes"/>
      <point x="160" y="649"/>
      <point x="153" y="652"/>
      <point x="142" y="652" type="curve" smooth="yes"/>
      <point x="130" y="652"/>
      <point x="106" y="650"/>
      <point x="87" y="650" type="curve" smooth="yes"/>
      <point x="60" y="650"/>
      <point x="29" y="653"/>
      <point x="12" y="653" type="curve" smooth="yes"/>
      <point x="2" y="653"/>
      <point x="-6" y="650"/>
      <point x="-6" y="642" type="curve" smooth="yes"/>
      <point x="-6" y="633"/>
      <point x="-1" y="627"/>
      <point x="9" y="620" type="curve" smooth="yes"/>
      <point x="24" y="610"/>
      <point x="42" y="546"/>
      <point x="48" y="522" type="curve" smooth="yes"/>
      <point x="99" y="330" type="line"/>
      <point x="104" y="305"/>
      <point x="105" y="283"/>
      <point x="105" y="256" type="curve" smooth="yes"/>
      <point x="105" y="108" type="line" smooth="yes"/>
      <point x="105" y="60"/>
      <point x="98" y="32"/>
      <point x="86" y="24" type="curve" smooth="yes"/>
      <point x="80" y="20"/>
      <point x="77" y="15"/>
      <point x="77" y="6" type="curve" smooth="yes"/>
      <point x="77" y="-2"/>
      <point x="84" y="-5"/>
    </contour>
  </outline>
</glyph>
<glyph name="Z" format="1">
  <advance width="254"/>
  <unicode hex="005A"/>
  <outline>
    <contour>
      <point x="226" y="-5" type="curve" smooth="yes"/>
      <point x="231" y="-5"/>
      <point x="233" y="4"/>
      <point x="234" y="12" type="curve" smooth="yes"/>
      <point x="239" y="36"/>
      <point x="249" y="124"/>
      <point x="249" y="148" type="curve" smooth="yes"/>
      <point x="249" y="157"/>
      <point x="243" y="161"/>
      <point x="233" y="161" type="curve" smooth="yes"/>
      <point x="218" y="161"/>
      <point x="216" y="148"/>
      <point x="214" y="140" type="curve" smooth="yes"/>
      <point x="201" y="82"/>
      <point x="193" y="61"/>
      <point x="173" y="57" type="curve" smooth="yes"/>
      <point x="161" y="55"/>
      <point x="154" y="53"/>
      <point x="143" y="53" type="curve" smooth="yes"/>
      <point x="132" y="53"/>
      <point x="126" y="55"/>
      <point x="120" y="57" type="curve"/>
      <point x="118" y="58"/>
      <point x="117" y="65"/>
      <point x="117" y="71" type="curve" smooth="yes"/>
      <point x="117" y="75"/>
      <point x="118" y="79"/>
      <point x="119" y="81" type="curve"/>
      <point x="155" y="247"/>
      <point x="185" y="390"/>
      <point x="221" y="550" type="curve"/>
      <point x="243" y="631" type="line" smooth="yes"/>
      <point x="244" y="636"/>
      <point x="241" y="649"/>
      <point x="238" y="649" type="curve" smooth="yes"/>
      <point x="205" y="647"/>
      <point x="173" y="646"/>
      <point x="137" y="646" type="curve" smooth="yes"/>
      <point x="117" y="646"/>
      <point x="96" y="646"/>
      <point x="81" y="646" type="curve" smooth="yes"/>
      <point x="66" y="646"/>
      <point x="49" y="656"/>
      <point x="44" y="662" type="curve" smooth="yes"/>
      <point x="39" y="667"/>
      <point x="32" y="676"/>
      <point x="30" y="676" type="curve" smooth="yes"/>
      <point x="28" y="676"/>
      <point x="24" y="674"/>
      <point x="23" y="659" type="curve" smooth="yes"/>
      <point x="22" y="617"/>
      <point x="15" y="562"/>
      <point x="12" y="541" type="curve"/>
      <point x="10" y="533"/>
      <point x="10" y="522"/>
      <point x="13" y="514" type="curve" smooth="yes"/>
      <point x="15" y="508"/>
      <point x="19" y="503"/>
      <point x="24" y="503" type="curve" smooth="yes"/>
      <point x="42" y="503"/>
      <point x="47" y="523"/>
      <point x="48" y="535" type="curve" smooth="yes"/>
      <point x="54" y="572"/>
      <point x="64" y="583"/>
      <point x="72" y="588" type="curve" smooth="yes"/>
      <point x="79" y="591"/>
      <point x="90" y="593"/>
      <point x="98" y="593" type="curve" smooth="yes"/>
      <point x="111" y="593"/>
      <point x="115" y="592"/>
      <point x="122" y="591" type="curve"/>
      <point x="124" y="591"/>
      <point x="125" y="590"/>
      <point x="126" y="588" type="curve" smooth="yes"/>
      <point x="127" y="587"/>
      <point x="128" y="585"/>
      <point x="128" y="583" type="curve"/>
      <point x="92" y="418"/>
      <point x="61" y="270"/>
      <point x="25" y="105" type="curve"/>
      <point x="17" y="74"/>
      <point x="5" y="21"/>
      <point x="5" y="11" type="curve"/>
      <point x="5" y="11"/>
      <point x="5" y="-3"/>
      <point x="8" y="-3" type="curve" smooth="yes"/>
      <point x="42" y="-3" type="line" smooth="yes"/>
      <point x="59" y="-3"/>
      <point x="76" y="-2"/>
      <point x="94" y="-2" type="curve" smooth="yes"/>
      <point x="133" y="-2"/>
      <point x="176" y="-5"/>
    </contour>
  </outline>
</glyph>
<glyph name="asciicircum" format="1">
  <advance width="272"/>
  <unicode hex="005E"/>
  <outline>
    <contour>
      <point x="40" y="288" type="curve" smooth="yes"/>
      <point x="53" y="288"/>
      <point x="88" y="298"/>
      <point x="95" y="321" type="curve" smooth="yes"/>
      <point x="135" y="452" type="line"/>
      <point x="139" y="462"/>
      <point x="139" y="462"/>
      <point x="142" y="452" type="curve"/>
      <point x="187" y="315" type="line" smooth="yes"/>
      <point x="193" y="296"/>
      <point x="215" y="284"/>
      <point x="235" y="284" type="curve" smooth="yes"/>
      <point x="245" y="284"/>
      <point x="247" y="307"/>
      <point x="242" y="321" type="curve"/>
      <point x="156" y="625" type="line"/>
      <point x="127" y="625" type="line"/>
      <point x="32" y="325" type="line"/>
      <point x="30" y="319"/>
      <point x="30" y="312"/>
      <point x="30" y="307" type="curve" smooth="yes"/>
      <point x="30" y="297"/>
      <point x="35" y="288"/>
    </contour>
  </outline>
</glyph>
<glyph name="underscore" format="1">
  <advance width="221"/>
  <unicode hex="005F"/>
  <outline>
    <contour>
      <point x="14" y="-188" type="curve" smooth="yes"/>
      <point x="189" y="-188" type="line" smooth="yes"/>
      <point x="205" y="-188"/>
      <point x="221" y="-151"/>
      <point x="221" y="-137" type="curve" smooth="yes"/>
      <point x="221" y="-131"/>
      <point x="213" y="-126"/>
      <point x="207" y="-126" type="curve" smooth="yes"/>
      <point x="24" y="-126" type="line" smooth="yes"/>
      <point x="6" y="-126"/>
      <point x="0" y="-167"/>
      <point x="0" y="-176" type="curve" smooth="yes"/>
      <point x="0" y="-182"/>
      <point x="7" y="-188"/>
    </contour>
  </outline>
</glyph>
<glyph name="grave" format="1">
  <advance width="122"/>
  <unicode hex="0060"/>
  <outline>
    <contour>
      <point x="108" y="422" type="curve" smooth="yes"/>
      <point x="116" y="422"/>
      <point x="116" y="430"/>
      <point x="118" y="441" type="curve" smooth="yes"/>
      <point x="119" y="448"/>
      <point x="118" y="455"/>
      <point x="118" y="462" type="curve" smooth="yes"/>
      <point x="118" y="511"/>
      <point x="109" y="564"/>
      <point x="103" y="605" type="curve" smooth="yes"/>
      <point x="96" y="646"/>
      <point x="74" y="661"/>
      <point x="35" y="661" type="curve" smooth="yes"/>
      <point x="14" y="661"/>
      <point x="4" y="650"/>
      <point x="4" y="633" type="curve" smooth="yes"/>
      <point x="4" y="627"/>
      <point x="6" y="620"/>
      <point x="8" y="613" type="curve" smooth="yes"/>
      <point x="35" y="541"/>
      <point x="48" y="514"/>
      <point x="82" y="449" type="curve" smooth="yes"/>
      <point x="91" y="432"/>
      <point x="100" y="422"/>
    </contour>
  </outline>
</glyph>
<glyph name="a" format="1">
  <advance width="233"/>
  <unicode hex="0061"/>
  <outline>
    <contour>
      <point x="50" y="-14" type="curve" smooth="yes"/>
      <point x="74" y="-14"/>
      <point x="95" y="4"/>
      <point x="120" y="40" type="curve"/>
      <point x="122" y="40" type="line"/>
      <point x="133" y="4"/>
      <point x="153" y="-14"/>
      <point x="177" y="-14" type="curve" smooth="yes"/>
      <point x="189" y="-14"/>
      <point x="214" y="2"/>
      <point x="226" y="23" type="curve" smooth="yes"/>
      <point x="229" y="29"/>
      <point x="232" y="39"/>
      <point x="232" y="45" type="curve" smooth="yes"/>
      <point x="232" y="54"/>
      <point x="227" y="63"/>
      <point x="222" y="63" type="curve" smooth="yes"/>
      <point x="221" y="63"/>
      <point x="219" y="61"/>
      <point x="216" y="54" type="curve"/>
      <point x="214" y="47"/>
      <point x="211" y="46"/>
      <point x="204" y="46" type="curve" smooth="yes"/>
      <point x="198" y="46"/>
      <point x="194" y="60"/>
      <point x="194" y="82" type="curve" smooth="yes"/>
      <point x="197" y="324" type="line" smooth="yes"/>
      <point x="198" y="374"/>
      <point x="170" y="414"/>
      <point x="139" y="414" type="curve" smooth="yes"/>
      <point x="114" y="414"/>
      <point x="67" y="382"/>
      <point x="40" y="342" type="curve" smooth="yes"/>
      <point x="25" y="320"/>
      <point x="17" y="294"/>
      <point x="17" y="264" type="curve" smooth="yes"/>
      <point x="17" y="260"/>
      <point x="18" y="255"/>
      <point x="22" y="255" type="curve" smooth="yes"/>
      <point x="33" y="255"/>
      <point x="63" y="272"/>
      <point x="70" y="290" type="curve" smooth="yes"/>
      <point x="72" y="295"/>
      <point x="70" y="304"/>
      <point x="70" y="306" type="curve" smooth="yes"/>
      <point x="70" y="317"/>
      <point x="70" y="326"/>
      <point x="73" y="332" type="curve" smooth="yes"/>
      <point x="78" y="340"/>
      <point x="85" y="346"/>
      <point x="92" y="346" type="curve" smooth="yes"/>
      <point x="105" y="346"/>
      <point x="113" y="323"/>
      <point x="112" y="292" type="curve" smooth="yes"/>
      <point x="111" y="237" type="line" smooth="yes"/>
      <point x="111" y="210"/>
      <point x="111" y="208"/>
      <point x="96" y="197" type="curve" smooth="yes"/>
      <point x="43" y="155" type="line" smooth="yes"/>
      <point x="17" y="136"/>
      <point x="5" y="115"/>
      <point x="5" y="73" type="curve" smooth="yes"/>
      <point x="5" y="32"/>
      <point x="29" y="-14"/>
    </contour>
    <contour>
      <point x="93" y="55" type="curve" smooth="yes"/>
      <point x="88" y="55"/>
      <point x="81" y="68"/>
      <point x="81" y="97" type="curve" smooth="yes"/>
      <point x="81" y="118"/>
      <point x="87" y="140"/>
      <point x="105" y="161" type="curve" smooth="yes"/>
      <point x="108" y="164"/>
      <point x="109" y="165"/>
      <point x="111" y="165" type="curve" smooth="yes"/>
      <point x="112" y="165"/>
      <point x="113" y="160"/>
      <point x="112" y="149" type="curve" smooth="yes"/>
      <point x="112" y="108" type="line" smooth="yes"/>
      <point x="112" y="88"/>
      <point x="111" y="80"/>
      <point x="109" y="74" type="curve" smooth="yes"/>
      <point x="105" y="62"/>
      <point x="100" y="55"/>
    </contour>
  </outline>
</glyph>
<glyph name="b" format="1">
  <advance width="276"/>
  <unicode hex="0062"/>
  <outline>
    <contour>
      <point x="156" y="-14" type="curve" smooth="yes"/>
      <point x="221" y="-14"/>
      <point x="267" y="80"/>
      <point x="267" y="217" type="curve" smooth="yes"/>
      <point x="267" y="338"/>
      <point x="235" y="414"/>
      <point x="179" y="414" type="curve" smooth="yes"/>
      <point x="158" y="414"/>
      <point x="136" y="397"/>
      <point x="116" y="363" type="curve"/>
      <point x="107" y="364"/>
      <point x="107" y="370"/>
      <point x="107" y="396" type="curve" smooth="yes"/>
      <point x="107" y="593" type="line" smooth="yes"/>
      <point x="107" y="649"/>
      <point x="110" y="691"/>
      <point x="110" y="696" type="curve" smooth="yes"/>
      <point x="110" y="702"/>
      <point x="107" y="705"/>
      <point x="105" y="705" type="curve" smooth="yes"/>
      <point x="100" y="705"/>
      <point x="93" y="702"/>
      <point x="86" y="695" type="curve" smooth="yes"/>
      <point x="75" y="684"/>
      <point x="32" y="658"/>
      <point x="8" y="649" type="curve" smooth="yes"/>
      <point x="5" y="648"/>
      <point x="3" y="646"/>
      <point x="3" y="639" type="curve" smooth="yes"/>
      <point x="3" y="631"/>
      <point x="5" y="627"/>
      <point x="8" y="624" type="curve" smooth="yes"/>
      <point x="18" y="614"/>
      <point x="22" y="589"/>
      <point x="22" y="551" type="curve" smooth="yes"/>
      <point x="22" y="81" type="line" smooth="yes"/>
      <point x="22" y="56"/>
      <point x="16" y="21"/>
      <point x="16" y="9" type="curve" smooth="yes"/>
      <point x="16" y="2"/>
      <point x="25" y="-3"/>
      <point x="29" y="-3" type="curve" smooth="yes"/>
      <point x="33" y="-3"/>
      <point x="36" y="-1"/>
      <point x="38" y="2" type="curve" smooth="yes"/>
      <point x="43" y="9"/>
      <point x="51" y="15"/>
      <point x="60" y="15" type="curve" smooth="yes"/>
      <point x="68" y="15"/>
      <point x="98" y="7"/>
      <point x="114" y="-1" type="curve" smooth="yes"/>
      <point x="127" y="-8"/>
      <point x="141" y="-14"/>
    </contour>
    <contour>
      <point x="144" y="17" type="curve" smooth="yes"/>
      <point x="123" y="17"/>
      <point x="107" y="51"/>
      <point x="107" y="126" type="curve" smooth="yes"/>
      <point x="107" y="311" type="line"/>
      <point x="115" y="334"/>
      <point x="125" y="352"/>
      <point x="138" y="352" type="curve" smooth="yes"/>
      <point x="165" y="352"/>
      <point x="176" y="260"/>
      <point x="176" y="186" type="curve" smooth="yes"/>
      <point x="176" y="68"/>
      <point x="163" y="17"/>
    </contour>
  </outline>
</glyph>
<glyph name="c" format="1">
  <advance width="209"/>
  <unicode hex="0063"/>
  <outline>
    <contour>
      <point x="100" y="-13" type="curve" smooth="yes"/>
      <point x="131" y="-13"/>
      <point x="162" y="8"/>
      <point x="181" y="46" type="curve" smooth="yes"/>
      <point x="187" y="58"/>
      <point x="189" y="76"/>
      <point x="189" y="84" type="curve" smooth="yes"/>
      <point x="189" y="92"/>
      <point x="185" y="100"/>
      <point x="181" y="100" type="curve" smooth="yes"/>
      <point x="177" y="100"/>
      <point x="173" y="97"/>
      <point x="171" y="92" type="curve" smooth="yes"/>
      <point x="165" y="75"/>
      <point x="155" y="62"/>
      <point x="143" y="62" type="curve" smooth="yes"/>
      <point x="115" y="62"/>
      <point x="96" y="122"/>
      <point x="96" y="212" type="curve" smooth="yes"/>
      <point x="96" y="306"/>
      <point x="110" y="367"/>
      <point x="131" y="367" type="curve" smooth="yes"/>
      <point x="139" y="367"/>
      <point x="150" y="351"/>
      <point x="156" y="332" type="curve" smooth="yes"/>
      <point x="159" y="323"/>
      <point x="165" y="315"/>
      <point x="174" y="315" type="curve" smooth="yes"/>
      <point x="183" y="315"/>
      <point x="194" y="335"/>
      <point x="194" y="353" type="curve" smooth="yes"/>
      <point x="194" y="367"/>
      <point x="186" y="381"/>
      <point x="174" y="393" type="curve" smooth="yes"/>
      <point x="162" y="405"/>
      <point x="145" y="414"/>
      <point x="131" y="414" type="curve" smooth="yes"/>
      <point x="65" y="414"/>
      <point x="9" y="319"/>
      <point x="9" y="180" type="curve" smooth="yes"/>
      <point x="9" y="70"/>
      <point x="47" y="-13"/>
    </contour>
  </outline>
</glyph>
<glyph name="d" format="1">
  <advance width="290"/>
  <unicode hex="0064"/>
  <outline>
    <contour>
      <point x="175" y="-19" type="curve" smooth="yes"/>
      <point x="178" y="-19"/>
      <point x="178" y="-19"/>
      <point x="187" y="-13" type="curve" smooth="yes"/>
      <point x="221" y="9"/>
      <point x="255" y="16"/>
      <point x="274" y="19" type="curve" smooth="yes"/>
      <point x="285" y="21"/>
      <point x="288" y="35"/>
      <point x="288" y="44" type="curve" smooth="yes"/>
      <point x="288" y="52"/>
      <point x="284" y="59"/>
      <point x="280" y="59" type="curve" smooth="yes"/>
      <point x="274" y="59"/>
      <point x="269" y="58"/>
      <point x="266" y="58" type="curve" smooth="yes"/>
      <point x="259" y="58"/>
      <point x="257" y="75"/>
      <point x="257" y="116" type="curve" smooth="yes"/>
      <point x="257" y="562" type="line" smooth="yes"/>
      <point x="257" y="652"/>
      <point x="260" y="686"/>
      <point x="260" y="698" type="curve"/>
      <point x="260" y="702"/>
      <point x="259" y="704"/>
      <point x="257" y="704" type="curve" smooth="yes"/>
      <point x="256" y="704"/>
      <point x="254" y="703"/>
      <point x="248" y="700" type="curve" smooth="yes"/>
      <point x="236" y="694"/>
      <point x="199" y="680"/>
      <point x="160" y="666" type="curve" smooth="yes"/>
      <point x="149" y="662"/>
      <point x="147" y="657"/>
      <point x="147" y="652" type="curve" smooth="yes"/>
      <point x="147" y="646"/>
      <point x="148" y="640"/>
      <point x="151" y="639" type="curve" smooth="yes"/>
      <point x="165" y="634"/>
      <point x="173" y="620"/>
      <point x="173" y="566" type="curve" smooth="yes"/>
      <point x="173" y="424" type="line" smooth="yes"/>
      <point x="173" y="406"/>
      <point x="171" y="400"/>
      <point x="169" y="400" type="curve" smooth="yes"/>
      <point x="167" y="400"/>
      <point x="166" y="401"/>
      <point x="162" y="403" type="curve" smooth="yes"/>
      <point x="153" y="408"/>
      <point x="146" y="414"/>
      <point x="131" y="414" type="curve" smooth="yes"/>
      <point x="49" y="414"/>
      <point x="9" y="312"/>
      <point x="9" y="190" type="curve" smooth="yes"/>
      <point x="9" y="62"/>
      <point x="50" y="-14"/>
      <point x="109" y="-14" type="curve" smooth="yes"/>
      <point x="146" y="-14"/>
      <point x="161" y="26"/>
      <point x="172" y="57" type="curve"/>
      <point x="172" y="51" type="line" smooth="yes"/>
      <point x="172" y="34"/>
      <point x="170" y="4"/>
      <point x="170" y="-9" type="curve" smooth="yes"/>
      <point x="170" y="-12"/>
      <point x="174" y="-19"/>
    </contour>
    <contour>
      <point x="140" y="55" type="curve" smooth="yes"/>
      <point x="125" y="55"/>
      <point x="103" y="67"/>
      <point x="103" y="216" type="curve" smooth="yes"/>
      <point x="103" y="347"/>
      <point x="128" y="379"/>
      <point x="143" y="379" type="curve" smooth="yes"/>
      <point x="165" y="379"/>
      <point x="173" y="345"/>
      <point x="173" y="314" type="curve" smooth="yes"/>
      <point x="172" y="95" type="line"/>
      <point x="164" y="66"/>
      <point x="151" y="55"/>
    </contour>
  </outline>
</glyph>
<glyph name="e" format="1">
  <advance width="217"/>
  <unicode hex="0065"/>
  <outline>
    <contour>
      <point x="117" y="-13" type="curve" smooth="yes"/>
      <point x="147" y="-13"/>
      <point x="178" y="10"/>
      <point x="195" y="49" type="curve" smooth="yes"/>
      <point x="201" y="63"/>
      <point x="205" y="77"/>
      <point x="205" y="90" type="curve" smooth="yes"/>
      <point x="205" y="96"/>
      <point x="202" y="104"/>
      <point x="197" y="104" type="curve" smooth="yes"/>
      <point x="190" y="104"/>
      <point x="187" y="99"/>
      <point x="184" y="92" type="curve" smooth="yes"/>
      <point x="176" y="73"/>
      <point x="164" y="58"/>
      <point x="146" y="58" type="curve" smooth="yes"/>
      <point x="118" y="58"/>
      <point x="96" y="119"/>
      <point x="96" y="206" type="curve" smooth="yes"/>
      <point x="96" y="233"/>
      <point x="99" y="239"/>
      <point x="105" y="239" type="curve" smooth="yes"/>
      <point x="193" y="239" type="line" smooth="yes"/>
      <point x="205" y="239"/>
      <point x="210" y="250"/>
      <point x="210" y="273" type="curve" smooth="yes"/>
      <point x="210" y="354"/>
      <point x="175" y="414"/>
      <point x="127" y="414" type="curve" smooth="yes"/>
      <point x="67" y="414"/>
      <point x="9" y="317"/>
      <point x="9" y="203" type="curve" smooth="yes"/>
      <point x="9" y="61"/>
      <point x="44" y="-13"/>
    </contour>
    <contour>
      <point x="101" y="287" type="line" smooth="yes"/>
      <point x="99" y="287"/>
      <point x="98" y="290"/>
      <point x="98" y="296" type="curve" smooth="yes"/>
      <point x="98" y="330"/>
      <point x="112" y="370"/>
      <point x="125" y="370" type="curve" smooth="yes"/>
      <point x="138" y="370"/>
      <point x="148" y="343"/>
      <point x="148" y="310" type="curve" smooth="yes"/>
      <point x="148" y="298"/>
      <point x="147" y="292"/>
      <point x="146" y="291" type="curve" smooth="yes"/>
      <point x="140" y="288"/>
      <point x="135" y="287"/>
      <point x="125" y="287" type="curve" smooth="yes"/>
    </contour>
  </outline>
</glyph>
<glyph name="g" format="1">
  <advance width="255"/>
  <unicode hex="0067"/>
  <outline>
    <contour>
      <point x="124" y="-290" type="curve" smooth="yes"/>
      <point x="190" y="-290"/>
      <point x="249" y="-180"/>
      <point x="249" y="-77" type="curve" smooth="yes"/>
      <point x="249" y="0"/>
      <point x="229" y="9"/>
      <point x="160" y="26" type="curve" smooth="yes"/>
      <point x="106" y="39"/>
      <point x="88" y="53"/>
      <point x="88" y="78" type="curve" smooth="yes"/>
      <point x="88" y="90"/>
      <point x="98" y="107"/>
      <point x="103" y="118" type="curve"/>
      <point x="61" y="133" type="line"/>
      <point x="53" y="116"/>
      <point x="44" y="92"/>
      <point x="33" y="80" type="curve" smooth="yes"/>
      <point x="21" y="67"/>
      <point x="16" y="56"/>
      <point x="16" y="44" type="curve" smooth="yes"/>
      <point x="16" y="-14"/>
      <point x="42" y="-27"/>
      <point x="102" y="-43" type="curve" smooth="yes"/>
      <point x="162" y="-59"/>
      <point x="171" y="-70"/>
      <point x="171" y="-113" type="curve" smooth="yes"/>
      <point x="171" y="-158"/>
      <point x="162" y="-199"/>
      <point x="155" y="-224" type="curve" smooth="yes"/>
      <point x="149" y="-241"/>
      <point x="142" y="-250"/>
      <point x="125" y="-250" type="curve" smooth="yes"/>
      <point x="101" y="-250"/>
      <point x="79" y="-226"/>
      <point x="79" y="-155" type="curve" smooth="yes"/>
      <point x="79" y="-105"/>
      <point x="84" y="-73"/>
      <point x="107" y="-34" type="curve"/>
      <point x="76" y="-26" type="line"/>
      <point x="55" y="-53"/>
      <point x="36" y="-79"/>
      <point x="24" y="-95" type="curve" smooth="yes"/>
      <point x="10" y="-113"/>
      <point x="5" y="-135"/>
      <point x="5" y="-170" type="curve" smooth="yes"/>
      <point x="5" y="-244"/>
      <point x="56" y="-290"/>
    </contour>
    <contour>
      <point x="119" y="152" type="curve" smooth="yes"/>
      <point x="103" y="152"/>
      <point x="92" y="184"/>
      <point x="92" y="269" type="curve" smooth="yes"/>
      <point x="92" y="345"/>
      <point x="102" y="375"/>
      <point x="117" y="375" type="curve" smooth="yes"/>
      <point x="131" y="375"/>
      <point x="144" y="347"/>
      <point x="144" y="274" type="curve" smooth="yes"/>
      <point x="144" y="185"/>
      <point x="137" y="152"/>
    </contour>
    <contour>
      <point x="109" y="106" type="curve" smooth="yes"/>
      <point x="182" y="106"/>
      <point x="222" y="193"/>
      <point x="222" y="295" type="curve" smooth="yes"/>
      <point x="222" y="313"/>
      <point x="225" y="320"/>
      <point x="226" y="331" type="curve" smooth="yes"/>
      <point x="226" y="337"/>
      <point x="233" y="341"/>
      <point x="243" y="341" type="curve" smooth="yes"/>
      <point x="257" y="341" type="line"/>
      <point x="258" y="341"/>
      <point x="261" y="343"/>
      <point x="263" y="347" type="curve" smooth="yes"/>
      <point x="267" y="354"/>
      <point x="268" y="364"/>
      <point x="268" y="370" type="curve" smooth="yes"/>
      <point x="268" y="381"/>
      <point x="265" y="388"/>
      <point x="260" y="388" type="curve" smooth="yes"/>
      <point x="253" y="388"/>
      <point x="233" y="385"/>
      <point x="223" y="385" type="curve" smooth="yes"/>
      <point x="210" y="385"/>
      <point x="200" y="386"/>
      <point x="179" y="395" type="curve" smooth="yes"/>
      <point x="161" y="403"/>
      <point x="143" y="416"/>
      <point x="117" y="416" type="curve" smooth="yes"/>
      <point x="61" y="416"/>
      <point x="10" y="351"/>
      <point x="10" y="258" type="curve" smooth="yes"/>
      <point x="10" y="176"/>
      <point x="60" y="106"/>
    </contour>
  </outline>
</glyph>
<glyph name="h" format="1">
  <advance width="279"/>
  <unicode hex="0068"/>
  <outline>
    <contour>
      <point x="14" y="-3" type="curve" smooth="yes"/>
      <point x="39" y="-3"/>
      <point x="48" y="2"/>
      <point x="70" y="2" type="curve" smooth="yes"/>
      <point x="93" y="2"/>
      <point x="95" y="-3"/>
      <point x="121" y="-3" type="curve" smooth="yes"/>
      <point x="129" y="-3"/>
      <point x="134" y="0"/>
      <point x="134" y="8" type="curve" smooth="yes"/>
      <point x="134" y="16"/>
      <point x="132" y="20"/>
      <point x="126" y="24" type="curve" smooth="yes"/>
      <point x="118" y="29"/>
      <point x="110" y="35"/>
      <point x="110" y="62" type="curve" smooth="yes"/>
      <point x="110" y="296" type="line" smooth="yes"/>
      <point x="110" y="299"/>
      <point x="111" y="306"/>
      <point x="111" y="309" type="curve" smooth="yes"/>
      <point x="111" y="330"/>
      <point x="127" y="340"/>
      <point x="143" y="340" type="curve" smooth="yes"/>
      <point x="162" y="340"/>
      <point x="169" y="316"/>
      <point x="169" y="272" type="curve" smooth="yes"/>
      <point x="169" y="62" type="line" smooth="yes"/>
      <point x="169" y="35"/>
      <point x="161" y="30"/>
      <point x="153" y="24" type="curve" smooth="yes"/>
      <point x="149" y="21"/>
      <point x="145" y="16"/>
      <point x="145" y="6" type="curve" smooth="yes"/>
      <point x="145" y="-2"/>
      <point x="154" y="-3"/>
      <point x="158" y="-3" type="curve" smooth="yes"/>
      <point x="184" y="-3"/>
      <point x="188" y="2"/>
      <point x="210" y="2" type="curve" smooth="yes"/>
      <point x="231" y="2"/>
      <point x="241" y="-3"/>
      <point x="265" y="-3" type="curve" smooth="yes"/>
      <point x="270" y="-3"/>
      <point x="278" y="-2"/>
      <point x="278" y="6" type="curve" smooth="yes"/>
      <point x="278" y="16"/>
      <point x="274" y="20"/>
      <point x="269" y="24" type="curve"/>
      <point x="262" y="30"/>
      <point x="253" y="35"/>
      <point x="253" y="62" type="curve" smooth="yes"/>
      <point x="253" y="290" type="line" smooth="yes"/>
      <point x="253" y="360"/>
      <point x="220" y="414"/>
      <point x="187" y="414" type="curve" smooth="yes"/>
      <point x="147" y="414"/>
      <point x="120" y="383"/>
      <point x="89" y="320" type="curve"/>
      <point x="117" y="344" type="line"/>
      <point x="113" y="350"/>
      <point x="110" y="355"/>
      <point x="110" y="375" type="curve"/>
      <point x="107" y="644" type="line"/>
      <point x="107" y="653"/>
      <point x="109" y="684"/>
      <point x="109" y="693" type="curve" smooth="yes"/>
      <point x="109" y="699"/>
      <point x="108" y="705"/>
      <point x="100" y="705" type="curve" smooth="yes"/>
      <point x="94" y="705"/>
      <point x="90" y="702"/>
      <point x="87" y="698" type="curve" smooth="yes"/>
      <point x="71" y="677"/>
      <point x="40" y="664"/>
      <point x="17" y="652" type="curve" smooth="yes"/>
      <point x="9" y="648"/>
      <point x="6" y="644"/>
      <point x="6" y="637" type="curve" smooth="yes"/>
      <point x="6" y="629"/>
      <point x="8" y="626"/>
      <point x="14" y="622" type="curve" smooth="yes"/>
      <point x="24" y="615"/>
      <point x="24" y="588"/>
      <point x="24" y="552" type="curve" smooth="yes"/>
      <point x="26" y="62" type="line" smooth="yes"/>
      <point x="26" y="35"/>
      <point x="17" y="31"/>
      <point x="10" y="24" type="curve" smooth="yes"/>
      <point x="5" y="19"/>
      <point x="1" y="18"/>
      <point x="1" y="8" type="curve" smooth="yes"/>
      <point x="1" y="0"/>
      <point x="7" y="-3"/>
    </contour>
  </outline>
</glyph>
<glyph name="i" format="1">
  <advance width="148"/>
  <unicode hex="0069"/>
  <outline>
    <contour>
      <point x="16" y="-3" type="curve" smooth="yes"/>
      <point x="42" y="-3"/>
      <point x="50" y="2"/>
      <point x="73" y="2" type="curve" smooth="yes"/>
      <point x="98" y="2"/>
      <point x="110" y="-3"/>
      <point x="136" y="-3" type="curve" smooth="yes"/>
      <point x="142" y="-3"/>
      <point x="145" y="0"/>
      <point x="145" y="8" type="curve" smooth="yes"/>
      <point x="145" y="18"/>
      <point x="139" y="21"/>
      <point x="135" y="24" type="curve" smooth="yes"/>
      <point x="124" y="32"/>
      <point x="116" y="39"/>
      <point x="116" y="62" type="curve" smooth="yes"/>
      <point x="116" y="294" type="line" smooth="yes"/>
      <point x="116" y="339"/>
      <point x="120" y="413"/>
      <point x="120" y="423" type="curve" smooth="yes"/>
      <point x="120" y="432"/>
      <point x="112" y="434"/>
      <point x="110" y="434" type="curve" smooth="yes"/>
      <point x="106" y="434"/>
      <point x="98" y="431"/>
      <point x="94" y="427" type="curve" smooth="yes"/>
      <point x="78" y="411"/>
      <point x="52" y="397"/>
      <point x="19" y="377" type="curve" smooth="yes"/>
      <point x="14" y="374"/>
      <point x="12" y="372"/>
      <point x="12" y="365" type="curve" smooth="yes"/>
      <point x="12" y="357"/>
      <point x="14" y="350"/>
      <point x="17" y="349" type="curve" smooth="yes"/>
      <point x="33" y="344"/>
      <point x="32" y="315"/>
      <point x="32" y="279" type="curve" smooth="yes"/>
      <point x="32" y="62" type="line" smooth="yes"/>
      <point x="32" y="38"/>
      <point x="29" y="31"/>
      <point x="17" y="24" type="curve" smooth="yes"/>
      <point x="12" y="21"/>
      <point x="7" y="18"/>
      <point x="7" y="8" type="curve" smooth="yes"/>
      <point x="7" y="0"/>
      <point x="11" y="-3"/>
    </contour>
    <contour>
      <point x="71" y="507" type="curve" smooth="yes"/>
      <point x="105" y="507"/>
      <point x="131" y="533"/>
      <point x="131" y="566" type="curve" smooth="yes"/>
      <point x="131" y="600"/>
      <point x="105" y="626"/>
      <point x="71" y="626" type="curve" smooth="yes"/>
      <point x="38" y="626"/>
      <point x="12" y="600"/>
      <point x="12" y="566" type="curve" smooth="yes"/>
      <point x="12" y="533"/>
      <point x="38" y="507"/>
    </contour>
  </outline>
</glyph>
<glyph name="l" format="1">
  <advance width="146"/>
  <unicode hex="006C"/>
  <outline>
    <contour>
      <point x="16" y="-3" type="curve" smooth="yes"/>
      <point x="42" y="-3"/>
      <point x="53" y="2"/>
      <point x="74" y="2" type="curve" smooth="yes"/>
      <point x="95" y="2"/>
      <point x="106" y="-3"/>
      <point x="132" y="-3" type="curve" smooth="yes"/>
      <point x="136" y="-3"/>
      <point x="143" y="-2"/>
      <point x="143" y="6" type="curve" smooth="yes"/>
      <point x="143" y="16"/>
      <point x="138" y="21"/>
      <point x="134" y="24" type="curve" smooth="yes"/>
      <point x="125" y="31"/>
      <point x="116" y="35"/>
      <point x="116" y="62" type="curve" smooth="yes"/>
      <point x="116" y="562" type="line" smooth="yes"/>
      <point x="116" y="652"/>
      <point x="123" y="686"/>
      <point x="123" y="698" type="curve" smooth="yes"/>
      <point x="123" y="702"/>
      <point x="119" y="705"/>
      <point x="115" y="705" type="curve" smooth="yes"/>
      <point x="113" y="705"/>
      <point x="108" y="704"/>
      <point x="106" y="703" type="curve" smooth="yes"/>
      <point x="75" y="687"/>
      <point x="40" y="677"/>
      <point x="24" y="669" type="curve" smooth="yes"/>
      <point x="12" y="663"/>
      <point x="10" y="660"/>
      <point x="10" y="651" type="curve" smooth="yes"/>
      <point x="10" y="644"/>
      <point x="14" y="639"/>
      <point x="20" y="636" type="curve" smooth="yes"/>
      <point x="34" y="629"/>
      <point x="32" y="609"/>
      <point x="32" y="566" type="curve" smooth="yes"/>
      <point x="32" y="62" type="line" smooth="yes"/>
      <point x="32" y="35"/>
      <point x="23" y="30"/>
      <point x="14" y="24" type="curve"/>
      <point x="10" y="20"/>
      <point x="5" y="16"/>
      <point x="5" y="6" type="curve" smooth="yes"/>
      <point x="5" y="-2"/>
      <point x="12" y="-3"/>
    </contour>
  </outline>
</glyph>
<glyph name="m" format="1">
  <advance width="441"/>
  <unicode hex="006D"/>
  <outline>
    <contour>
      <point x="18" y="-3" type="curve" smooth="yes"/>
      <point x="42" y="-3"/>
      <point x="52" y="2"/>
      <point x="73" y="2" type="curve" smooth="yes"/>
      <point x="96" y="2"/>
      <point x="99" y="-3"/>
      <point x="125" y="-3" type="curve" smooth="yes"/>
      <point x="132" y="-3"/>
      <point x="138" y="0"/>
      <point x="138" y="8" type="curve" smooth="yes"/>
      <point x="138" y="18"/>
      <point x="133" y="20"/>
      <point x="130" y="24" type="curve" smooth="yes"/>
      <point x="123" y="30"/>
      <point x="114" y="35"/>
      <point x="114" y="62" type="curve" smooth="yes"/>
      <point x="114" y="268" type="line" smooth="yes"/>
      <point x="114" y="295"/>
      <point x="112" y="312"/>
      <point x="119" y="323" type="curve" smooth="yes"/>
      <point x="129" y="339"/>
      <point x="140" y="345"/>
      <point x="153" y="345" type="curve" smooth="yes"/>
      <point x="171" y="345"/>
      <point x="178" y="311"/>
      <point x="178" y="271" type="curve" smooth="yes"/>
      <point x="178" y="62" type="line" smooth="yes"/>
      <point x="178" y="35"/>
      <point x="169" y="30"/>
      <point x="162" y="24" type="curve" smooth="yes"/>
      <point x="158" y="21"/>
      <point x="154" y="18"/>
      <point x="154" y="8" type="curve" smooth="yes"/>
      <point x="154" y="0"/>
      <point x="159" y="-3"/>
      <point x="167" y="-3" type="curve" smooth="yes"/>
      <point x="194" y="-3"/>
      <point x="199" y="2"/>
      <point x="223" y="2" type="curve" smooth="yes"/>
      <point x="244" y="2"/>
      <point x="248" y="-3"/>
      <point x="274" y="-3" type="curve" smooth="yes"/>
      <point x="283" y="-3"/>
      <point x="287" y="0"/>
      <point x="287" y="8" type="curve" smooth="yes"/>
      <point x="287" y="17"/>
      <point x="284" y="21"/>
      <point x="279" y="24" type="curve" smooth="yes"/>
      <point x="271" y="29"/>
      <point x="262" y="35"/>
      <point x="262" y="62" type="curve" smooth="yes"/>
      <point x="262" y="268" type="line" smooth="yes"/>
      <point x="262" y="296"/>
      <point x="267" y="314"/>
      <point x="272" y="327" type="curve" smooth="yes"/>
      <point x="279" y="342"/>
      <point x="288" y="348"/>
      <point x="299" y="348" type="curve" smooth="yes"/>
      <point x="313" y="348"/>
      <point x="325" y="310"/>
      <point x="325" y="271" type="curve" smooth="yes"/>
      <point x="325" y="62" type="line" smooth="yes"/>
      <point x="325" y="35"/>
      <point x="315" y="29"/>
      <point x="307" y="24" type="curve" smooth="yes"/>
      <point x="302" y="21"/>
      <point x="298" y="18"/>
      <point x="298" y="8" type="curve" smooth="yes"/>
      <point x="298" y="0"/>
      <point x="308" y="-3"/>
      <point x="315" y="-3" type="curve" smooth="yes"/>
      <point x="339" y="-3"/>
      <point x="345" y="2"/>
      <point x="367" y="2" type="curve" smooth="yes"/>
      <point x="390" y="2"/>
      <point x="396" y="-3"/>
      <point x="424" y="-3" type="curve" smooth="yes"/>
      <point x="432" y="-3"/>
      <point x="435" y="0"/>
      <point x="435" y="8" type="curve" smooth="yes"/>
      <point x="435" y="17"/>
      <point x="431" y="20"/>
      <point x="427" y="24" type="curve" smooth="yes"/>
      <point x="420" y="31"/>
      <point x="409" y="35"/>
      <point x="409" y="62" type="curve" smooth="yes"/>
      <point x="409" y="285" type="line" smooth="yes"/>
      <point x="409" y="353"/>
      <point x="380" y="414"/>
      <point x="338" y="414" type="curve" smooth="yes"/>
      <point x="302" y="414"/>
      <point x="275" y="390"/>
      <point x="253" y="352" type="curve"/>
      <point x="251" y="352" type="line"/>
      <point x="240" y="395"/>
      <point x="214" y="414"/>
      <point x="192" y="414" type="curve" smooth="yes"/>
      <point x="155" y="414"/>
      <point x="128" y="389"/>
      <point x="112" y="360" type="curve"/>
      <point x="111" y="360" type="line"/>
      <point x="110" y="361"/>
      <point x="110" y="366"/>
      <point x="110" y="372" type="curve" smooth="yes"/>
      <point x="110" y="391"/>
      <point x="112" y="414"/>
      <point x="112" y="423" type="curve" smooth="yes"/>
      <point x="112" y="429"/>
      <point x="107" y="430"/>
      <point x="103" y="430" type="curve" smooth="yes"/>
      <point x="96" y="430"/>
      <point x="93" y="427"/>
      <point x="83" y="417" type="curve" smooth="yes"/>
      <point x="67" y="401"/>
      <point x="45" y="388"/>
      <point x="26" y="378" type="curve" smooth="yes"/>
      <point x="16" y="373"/>
      <point x="13" y="370"/>
      <point x="12" y="362" type="curve" smooth="yes"/>
      <point x="12" y="354"/>
      <point x="15" y="351"/>
      <point x="21" y="343" type="curve" smooth="yes"/>
      <point x="27" y="336"/>
      <point x="30" y="315"/>
      <point x="30" y="277" type="curve" smooth="yes"/>
      <point x="30" y="62" type="line" smooth="yes"/>
      <point x="30" y="35"/>
      <point x="21" y="30"/>
      <point x="14" y="24" type="curve" smooth="yes"/>
      <point x="8" y="20"/>
      <point x="5" y="17"/>
      <point x="5" y="8" type="curve" smooth="yes"/>
      <point x="5" y="-1"/>
      <point x="11" y="-3"/>
    </contour>
  </outline>
</glyph>
<glyph name="o" format="1">
  <advance width="258"/>
  <unicode hex="006F"/>
  <outline>
    <contour>
      <point x="121" y="-14" type="curve" smooth="yes"/>
      <point x="206" y="-14"/>
      <point x="249" y="63"/>
      <point x="249" y="213" type="curve" smooth="yes"/>
      <point x="249" y="339"/>
      <point x="206" y="414"/>
      <point x="133" y="414" type="curve" smooth="yes"/>
      <point x="59" y="414"/>
      <point x="9" y="322"/>
      <point x="9" y="187" type="curve" smooth="yes"/>
      <point x="9" y="56"/>
      <point x="48" y="-14"/>
    </contour>
    <contour>
      <point x="131" y="29" type="curve" smooth="yes"/>
      <point x="108" y="29"/>
      <point x="99" y="80"/>
      <point x="99" y="209" type="curve" smooth="yes"/>
      <point x="99" y="314"/>
      <point x="109" y="370"/>
      <point x="127" y="370" type="curve" smooth="yes"/>
      <point x="150" y="370"/>
      <point x="159" y="320"/>
      <point x="159" y="190" type="curve" smooth="yes"/>
      <point x="159" y="75"/>
      <point x="151" y="29"/>
    </contour>
  </outline>
</glyph>
<glyph name="r" format="1">
  <advance width="204"/>
  <unicode hex="0072"/>
  <outline>
    <contour>
      <point x="16" y="-3" type="curve" smooth="yes"/>
      <point x="41" y="-3"/>
      <point x="54" y="2"/>
      <point x="77" y="2" type="curve" smooth="yes"/>
      <point x="100" y="2"/>
      <point x="106" y="-3"/>
      <point x="131" y="-3" type="curve" smooth="yes"/>
      <point x="141" y="-3"/>
      <point x="144" y="0"/>
      <point x="144" y="8" type="curve" smooth="yes"/>
      <point x="144" y="17"/>
      <point x="140" y="20"/>
      <point x="135" y="24" type="curve" smooth="yes"/>
      <point x="122" y="34"/>
      <point x="114" y="44"/>
      <point x="114" y="62" type="curve" smooth="yes"/>
      <point x="114" y="264" type="line" smooth="yes"/>
      <point x="114" y="324"/>
      <point x="123" y="338"/>
      <point x="141" y="338" type="curve" smooth="yes"/>
      <point x="146" y="338"/>
      <point x="150" y="332"/>
      <point x="154" y="326" type="curve" smooth="yes"/>
      <point x="159" y="320"/>
      <point x="164" y="313"/>
      <point x="169" y="313" type="curve" smooth="yes"/>
      <point x="190" y="313"/>
      <point x="199" y="343"/>
      <point x="199" y="372" type="curve" smooth="yes"/>
      <point x="199" y="400"/>
      <point x="184" y="414"/>
      <point x="171" y="414" type="curve" smooth="yes"/>
      <point x="146" y="414"/>
      <point x="127" y="388"/>
      <point x="113" y="354" type="curve"/>
      <point x="113" y="354"/>
      <point x="112" y="355"/>
      <point x="112" y="356" type="curve"/>
      <point x="114" y="380"/>
      <point x="114" y="412"/>
      <point x="114" y="419" type="curve" smooth="yes"/>
      <point x="114" y="426"/>
      <point x="112" y="430"/>
      <point x="105" y="430" type="curve" smooth="yes"/>
      <point x="98" y="430"/>
      <point x="92" y="424"/>
      <point x="87" y="419" type="curve" smooth="yes"/>
      <point x="72" y="404"/>
      <point x="38" y="396"/>
      <point x="16" y="374" type="curve" smooth="yes"/>
      <point x="15" y="373"/>
      <point x="10" y="368"/>
      <point x="10" y="362" type="curve" smooth="yes"/>
      <point x="10" y="356"/>
      <point x="13" y="350"/>
      <point x="15" y="349" type="curve" smooth="yes"/>
      <point x="29" y="342"/>
      <point x="30" y="313"/>
      <point x="30" y="277" type="curve" smooth="yes"/>
      <point x="30" y="62" type="line" smooth="yes"/>
      <point x="30" y="43"/>
      <point x="24" y="30"/>
      <point x="13" y="24" type="curve" smooth="yes"/>
      <point x="7" y="21"/>
      <point x="3" y="18"/>
      <point x="3" y="8" type="curve" smooth="yes"/>
      <point x="3" y="0"/>
      <point x="7" y="-3"/>
    </contour>
  </outline>
</glyph>
<glyph name="s" format="1">
  <advance width="202"/>
  <unicode hex="0073"/>
  <outline>
    <contour>
      <point x="90" y="-14" type="curve" smooth="yes"/>
      <point x="155" y="-14"/>
      <point x="191" y="34"/>
      <point x="191" y="107" type="curve" smooth="yes"/>
      <point x="191" y="152"/>
      <point x="181" y="177"/>
      <point x="134" y="233" type="curve" smooth="yes"/>
      <point x="94" y="280"/>
      <point x="91" y="296"/>
      <point x="91" y="325" type="curve" smooth="yes"/>
      <point x="91" y="357"/>
      <point x="102" y="374"/>
      <point x="115" y="374" type="curve" smooth="yes"/>
      <point x="130" y="374"/>
      <point x="142" y="346"/>
      <point x="149" y="309" type="curve" smooth="yes"/>
      <point x="151" y="299"/>
      <point x="160" y="296"/>
      <point x="167" y="296" type="curve" smooth="yes"/>
      <point x="176" y="296"/>
      <point x="182" y="302"/>
      <point x="182" y="307" type="curve" smooth="yes"/>
      <point x="182" y="338"/>
      <point x="172" y="380"/>
      <point x="168" y="395" type="curve"/>
      <point x="159" y="404"/>
      <point x="140" y="414"/>
      <point x="117" y="414" type="curve" smooth="yes"/>
      <point x="61" y="414"/>
      <point x="26" y="363"/>
      <point x="26" y="299" type="curve" smooth="yes"/>
      <point x="26" y="249"/>
      <point x="39" y="211"/>
      <point x="75" y="172" type="curve" smooth="yes"/>
      <point x="114" y="129"/>
      <point x="119" y="109"/>
      <point x="119" y="77" type="curve" smooth="yes"/>
      <point x="119" y="45"/>
      <point x="106" y="26"/>
      <point x="87" y="26" type="curve" smooth="yes"/>
      <point x="71" y="26"/>
      <point x="49" y="50"/>
      <point x="42" y="109" type="curve"/>
      <point x="40" y="114"/>
      <point x="36" y="120"/>
      <point x="25" y="120" type="curve" smooth="yes"/>
      <point x="15" y="120"/>
      <point x="9" y="113"/>
      <point x="9" y="107" type="curve"/>
      <point x="9" y="84"/>
      <point x="10" y="36"/>
      <point x="15" y="22" type="curve"/>
      <point x="32" y="-1"/>
      <point x="63" y="-14"/>
    </contour>
  </outline>
</glyph>
<glyph name="y" format="1">
  <advance width="241"/>
  <unicode hex="0079"/>
  <outline>
    <contour>
      <point x="72" y="-285" type="curve" smooth="yes"/>
      <point x="95" y="-285"/>
      <point x="105" y="-271"/>
      <point x="110" y="-244" type="curve" smooth="yes"/>
      <point x="216" y="311" type="line"/>
      <point x="222" y="344"/>
      <point x="227" y="372"/>
      <point x="236" y="378" type="curve" smooth="yes"/>
      <point x="243" y="383"/>
      <point x="246" y="387"/>
      <point x="246" y="396" type="curve" smooth="yes"/>
      <point x="246" y="404"/>
      <point x="241" y="405"/>
      <point x="234" y="405" type="curve" smooth="yes"/>
      <point x="225" y="405"/>
      <point x="222" y="400"/>
      <point x="201" y="400" type="curve" smooth="yes"/>
      <point x="184" y="400"/>
      <point x="167" y="405"/>
      <point x="158" y="405" type="curve" smooth="yes"/>
      <point x="154" y="405"/>
      <point x="148" y="404"/>
      <point x="148" y="396" type="curve" smooth="yes"/>
      <point x="148" y="387"/>
      <point x="150" y="384"/>
      <point x="158" y="378" type="curve" smooth="yes"/>
      <point x="167" y="372"/>
      <point x="169" y="362"/>
      <point x="169" y="336" type="curve" smooth="yes"/>
      <point x="169" y="325"/>
      <point x="168" y="308"/>
      <point x="166" y="295" type="curve" smooth="yes"/>
      <point x="141" y="126" type="line"/>
      <point x="141" y="123"/>
      <point x="140" y="121"/>
      <point x="138" y="122" type="curve" smooth="yes"/>
      <point x="137" y="122"/>
      <point x="136" y="123"/>
      <point x="136" y="126" type="curve"/>
      <point x="115" y="310" type="line" smooth="yes"/>
      <point x="114" y="318"/>
      <point x="114" y="328"/>
      <point x="114" y="337" type="curve" smooth="yes"/>
      <point x="114" y="356"/>
      <point x="116" y="373"/>
      <point x="122" y="378" type="curve" smooth="yes"/>
      <point x="128" y="383"/>
      <point x="132" y="386"/>
      <point x="132" y="396" type="curve" smooth="yes"/>
      <point x="132" y="404"/>
      <point x="125" y="405"/>
      <point x="120" y="405" type="curve" smooth="yes"/>
      <point x="96" y="405"/>
      <point x="84" y="400"/>
      <point x="63" y="400" type="curve" smooth="yes"/>
      <point x="40" y="400"/>
      <point x="42" y="405"/>
      <point x="17" y="405" type="curve" smooth="yes"/>
      <point x="13" y="405"/>
      <point x="5" y="404"/>
      <point x="5" y="396" type="curve" smooth="yes"/>
      <point x="5" y="387"/>
      <point x="8" y="384"/>
      <point x="13" y="380" type="curve" smooth="yes"/>
      <point x="21" y="373"/>
      <point x="22" y="353"/>
      <point x="26" y="329" type="curve"/>
      <point x="88" y="-26" type="line" smooth="yes"/>
      <point x="90" y="-41"/>
      <point x="92" y="-58"/>
      <point x="93" y="-74" type="curve" smooth="yes"/>
      <point x="93" y="-85"/>
      <point x="93" y="-95"/>
      <point x="90" y="-116" type="curve" smooth="yes"/>
      <point x="78" y="-194" type="line" smooth="yes"/>
      <point x="77" y="-202"/>
      <point x="73" y="-205"/>
      <point x="69" y="-205" type="curve" smooth="yes"/>
      <point x="65" y="-205"/>
      <point x="58" y="-199"/>
      <point x="48" y="-199" type="curve" smooth="yes"/>
      <point x="39" y="-199"/>
      <point x="24" y="-215"/>
      <point x="24" y="-244" type="curve" smooth="yes"/>
      <point x="24" y="-274"/>
      <point x="53" y="-285"/>
    </contour>
  </outline>
</glyph>
<glyph name="braceleft" format="1">
  <advance width="236"/>
  <unicode hex="007B"/>
  <outline>
    <contour>
      <point x="203" y="-150" type="curve" smooth="yes"/>
      <point x="216" y="-151"/>
      <point x="221" y="-138"/>
      <point x="221" y="-126" type="curve" smooth="yes"/>
      <point x="221" y="-112"/>
      <point x="216" y="-106"/>
      <point x="204" y="-104" type="curve" smooth="yes"/>
      <point x="178" y="-100"/>
      <point x="154" y="-67"/>
      <point x="154" y="-23" type="curve" smooth="yes"/>
      <point x="154" y="45"/>
      <point x="164" y="92"/>
      <point x="164" y="150" type="curve" smooth="yes"/>
      <point x="164" y="216"/>
      <point x="120" y="263"/>
      <point x="77" y="280" type="curve"/>
      <point x="77" y="280"/>
      <point x="74" y="281"/>
      <point x="77" y="283" type="curve"/>
      <point x="120" y="300"/>
      <point x="164" y="348"/>
      <point x="164" y="414" type="curve" smooth="yes"/>
      <point x="164" y="472"/>
      <point x="154" y="519"/>
      <point x="154" y="587" type="curve" smooth="yes"/>
      <point x="154" y="637"/>
      <point x="178" y="665"/>
      <point x="204" y="669" type="curve" smooth="yes"/>
      <point x="216" y="671"/>
      <point x="221" y="676"/>
      <point x="221" y="690" type="curve" smooth="yes"/>
      <point x="221" y="702"/>
      <point x="216" y="715"/>
      <point x="203" y="714" type="curve" smooth="yes"/>
      <point x="138" y="711"/>
      <point x="71" y="676"/>
      <point x="71" y="582" type="curve" smooth="yes"/>
      <point x="71" y="512"/>
      <point x="76" y="466"/>
      <point x="76" y="404" type="curve" smooth="yes"/>
      <point x="76" y="346"/>
      <point x="71" y="316"/>
      <point x="27" y="303" type="curve" smooth="yes"/>
      <point x="12" y="298"/>
      <point x="10" y="288"/>
      <point x="10" y="282" type="curve" smooth="yes"/>
      <point x="10" y="276"/>
      <point x="12" y="266"/>
      <point x="27" y="261" type="curve" smooth="yes"/>
      <point x="71" y="246"/>
      <point x="76" y="218"/>
      <point x="76" y="160" type="curve" smooth="yes"/>
      <point x="76" y="98"/>
      <point x="71" y="52"/>
      <point x="71" y="-18" type="curve" smooth="yes"/>
      <point x="71" y="-112"/>
      <point x="138" y="-145"/>
    </contour>
  </outline>
</glyph>
